<svg width="115" height="48" viewBox="0 0 115 48" fill="none" xmlns="http://www.w3.org/2000/svg">
<path fill-rule="evenodd" clip-rule="evenodd" d="M2.52767 24.0623L2.05957 23.5507C2.4868 23.0805 2.99616 22.707 3.55799 22.4521C4.11981 22.1972 4.72282 22.0659 5.33195 22.0659C5.94108 22.0659 6.54409 22.1972 7.10591 22.4521C7.66774 22.707 8.1771 23.0805 8.60433 23.5507L8.12765 24.0438C7.76226 23.6444 7.32748 23.3274 6.84841 23.111C6.36926 22.8947 5.8553 22.7833 5.33624 22.7833C4.81719 22.7833 4.30322 22.8947 3.82407 23.111C3.34501 23.3274 2.91022 23.6444 2.54484 24.0438M4.19391 25.7553L3.76445 25.2902C3.97305 25.0573 4.22269 24.8721 4.49855 24.7457C4.7745 24.6192 5.07103 24.554 5.37059 24.554C5.67022 24.554 5.96676 24.6192 6.24262 24.7457C6.51849 24.8721 6.76812 25.0573 6.97673 25.2902L6.54727 25.7553C6.23698 25.4239 5.81929 25.237 5.38347 25.2344C5.16723 25.2326 4.95281 25.2778 4.75287 25.3672C4.55301 25.4568 4.37175 25.5887 4.21966 25.7553M5.38347 27.0018L4.55039 26.1181C4.7764 25.886 5.07238 25.7506 5.38347 25.7367C5.6928 25.7472 5.98711 25.8834 6.20804 26.1181L5.38347 27.0018ZM5.38347 24.0438C5.7463 24.0404 6.1058 24.1181 6.43978 24.2717C6.77368 24.4253 7.07483 24.6517 7.32454 24.9367L7.84423 24.374C7.52384 24.0153 7.14018 23.7301 6.71596 23.5353C6.29175 23.3405 5.83566 23.2401 5.37488 23.2401C4.9141 23.2401 4.45809 23.3405 4.03387 23.5353C3.60966 23.7301 3.22592 24.0153 2.90561 24.374L3.42093 24.9414C3.67382 24.6554 3.97791 24.4283 4.31459 24.274C4.65135 24.1196 5.01355 24.0413 5.37917 24.0438" fill="#0E6EB6"/>
<path fill-rule="evenodd" clip-rule="evenodd" d="M2.24045 27.6182H8.36004C3.97109 39.6446 3.2067 46.693 7.66005 46.5068C-2.10987 47.1302 -0.842955 36.8485 2.24475 27.6182" fill="#0E6EB6"/>
<path fill-rule="evenodd" clip-rule="evenodd" d="M7.86646 9.17071C13.4493 -0.683041 22.5019 -1.68792 28.9522 1.89899C36.1068 5.88612 38.3141 15.1117 36.5318 23.2348C34.9644 30.6228 30.4724 37.3733 24.6663 41.714C21.1123 44.3258 17.0744 46.0645 12.8351 46.8084C16.0853 45.6599 18.9939 43.593 21.2609 40.8207C22.6678 39.1657 23.8862 37.3335 24.8896 35.3636C28.1835 30.5529 29.708 25.8401 29.8154 21.7367C30.0301 16.233 27.8185 10.7711 23.1504 8.24483C19.0879 6.00707 13.6168 6.12336 7.86646 9.17529" fill="#F26329"/>
<path fill-rule="evenodd" clip-rule="evenodd" d="M3.64878 20.2852C8.20087 10.5153 17.5757 9.83136 23.0983 14.0603C25.2748 15.7335 26.8042 18.2188 27.3928 21.0389C28.1443 24.6305 27.5946 28.3524 26.3492 31.9021C25.2037 35.2049 23.4752 38.2342 21.2603 40.8208C18.1167 44.5846 13.6162 47.455 8.80642 47.3993C6.88419 47.4102 4.99511 46.8572 3.3396 45.7988C5.61131 46.9851 9.14564 46.5664 11.3058 45.6313C14.8788 44.0448 17.7475 40.7557 19.5382 37.1175C21.7499 32.6605 23.4934 25.4866 19.9677 21.3786C16.7683 17.5636 10.3868 16.2609 3.64878 20.2805" fill="#09A14A"/>
<path d="M110.58 25.8821L111.662 22.5184C111.534 22.5184 111.396 22.5184 111.28 22.5184C110.944 22.5036 110.608 22.5642 110.294 22.6963C109.98 22.8283 109.694 23.0292 109.456 23.286C108.976 23.7982 108.649 24.4547 108.519 25.1702C108.424 25.4946 108.436 25.8442 108.549 26.1612C108.604 26.2783 108.689 26.3752 108.795 26.4397C108.9 26.5043 109.021 26.5337 109.141 26.524C109.671 26.4879 110.176 26.2714 110.584 25.9053M114.02 21.025L111.753 27.9198H109.91L110.121 27.2638C109.567 27.7429 108.888 28.0212 108.18 28.0593C107.899 28.0725 107.621 27.9996 107.377 27.8489C107.133 27.6984 106.934 27.4761 106.801 27.2079C106.487 26.5334 106.424 25.7541 106.625 25.0307C106.857 23.805 107.492 22.7122 108.412 21.9555C109.431 21.1209 110.687 20.698 111.963 20.7598C112.648 20.752 113.331 20.8316 113.999 20.997M106.492 20.9086L104.194 27.9198H102.352L104.658 20.9086H106.492ZM105.238 18.9453C105.291 18.6515 105.434 18.3857 105.643 18.1906C105.853 17.9957 106.117 17.8829 106.393 17.8707C106.511 17.8672 106.628 17.8936 106.734 17.9477C106.841 18.0018 106.935 18.0822 107.008 18.1823C107.082 18.2899 107.133 18.4149 107.155 18.5473C107.177 18.6798 107.171 18.8161 107.136 18.9453C107.074 19.2504 106.923 19.526 106.706 19.7316C106.497 19.9203 106.233 20.0253 105.959 20.0294C105.845 20.0327 105.73 20.0076 105.625 19.9561C105.52 19.9045 105.427 19.8277 105.354 19.7316C105.283 19.6173 105.237 19.4875 105.219 19.3516C105.201 19.2156 105.209 19.0769 105.247 18.9453M99.4703 26.2682L100.652 22.6254C100.5 22.5988 100.346 22.5863 100.192 22.5882C99.5872 22.5744 98.9973 22.7882 98.5219 23.193C98.0695 23.5678 97.7531 24.1031 97.6283 24.705C97.5734 24.9083 97.5631 25.1227 97.5981 25.331C97.6331 25.5393 97.7126 25.7359 97.8302 25.9053C97.9725 26.0684 98.1466 26.195 98.3398 26.2755C98.533 26.356 98.7405 26.3885 98.9464 26.3705C99.1229 26.3598 99.2986 26.3318 99.4703 26.2868M104.194 17.3682L100.797 27.8407C100.082 27.9845 99.3566 28.0639 98.6292 28.078C97.5249 28.078 96.7132 27.7709 96.1893 27.1475C95.6654 26.524 95.5199 25.7192 95.7298 24.6957C95.9469 23.5925 96.5121 22.6056 97.3278 21.9043C98.1697 21.1426 99.2374 20.7361 100.334 20.7598C100.629 20.765 100.925 20.7899 101.219 20.8342L102.348 17.3496L104.194 17.3682ZM91.6205 20.9086L91.3414 21.6949C92.0045 21.1408 92.8066 20.8165 93.643 20.7645C93.8576 20.7426 94.0739 20.7843 94.2678 20.885C94.4626 20.9858 94.628 21.1419 94.7464 21.3367C94.8601 21.5812 94.9285 21.8476 94.9468 22.1207C94.965 22.3937 94.934 22.668 94.8537 22.9278C94.814 23.1406 94.7607 23.3505 94.6955 23.5559L93.282 27.9245H91.4488L92.8098 23.7373C92.8599 23.6199 92.898 23.4966 92.9219 23.3698C93.0507 22.6766 92.9219 22.337 92.5482 22.337C92.1746 22.337 91.5259 22.6859 90.7913 23.4163L89.3182 27.9337H87.4761L89.7777 20.9086H91.6205ZM89.001 17.3682L85.565 27.9384H83.5814L87.0166 17.3682H89.001ZM81.3562 17.3682L77.921 27.9384H76.0957L79.5317 17.3682H81.3562ZM73.1971 25.9006L74.2704 22.537C74.1416 22.537 74.0049 22.537 73.8888 22.537C73.5533 22.5225 73.2186 22.5831 72.9062 22.7152C72.5937 22.8473 72.3099 23.048 72.0722 23.3046C71.5968 23.8046 71.2677 24.4455 71.127 25.147C71.0276 25.4713 71.0411 25.8239 71.1659 26.138C71.2184 26.2546 71.3027 26.3516 71.4068 26.4163C71.511 26.4809 71.6302 26.5104 71.7502 26.5008C72.2797 26.4611 72.7853 26.2449 73.1971 25.8821M76.6323 21.0017L74.3785 27.9198H72.5445L72.7591 27.2638C72.2042 27.7385 71.5284 28.0163 70.8225 28.0593C70.5371 28.0779 70.2525 28.0081 70.002 27.8582C69.7524 27.7083 69.5465 27.4844 69.4098 27.2126C69.1021 26.536 69.0393 25.7595 69.2333 25.0353C69.4638 23.809 70.099 22.7157 71.0196 21.9601C72.042 21.1253 73.3013 20.7024 74.5796 20.7645C75.2633 20.7573 75.9447 20.8369 76.6109 21.0017M68.6323 19.4106L68.0909 20.9086H69.444L68.8898 22.4439H67.5288L66.7211 24.7329C66.6503 24.9057 66.5986 25.0868 66.5668 25.2726C66.4333 25.9006 66.5668 26.2031 66.9405 26.2031C67.3404 26.1405 67.7268 25.9969 68.0781 25.7797L67.7045 27.6406C67.1877 27.928 66.6185 28.087 66.0382 28.1059C65.7909 28.1249 65.5429 28.0755 65.3171 27.9624C65.0921 27.8493 64.8966 27.6762 64.7503 27.4592C64.6175 27.204 64.534 26.9226 64.5038 26.6318C64.4736 26.3409 64.4975 26.0465 64.5738 25.7657C64.6294 25.5657 64.6859 25.361 64.7503 25.1563L65.7337 22.4719H64.4879L65.0293 20.9366H66.283L66.803 19.4525L68.6323 19.4106ZM64.1445 20.9086L61.8509 27.9198H60.0176L62.3025 20.9086H64.1445ZM62.8773 18.9453C62.9409 18.6476 63.0919 18.3799 63.3073 18.1823C63.514 17.9894 63.7764 17.8793 64.0499 17.8707C64.1683 17.8665 64.286 17.8925 64.3933 17.9467C64.5006 18.0008 64.5952 18.0815 64.6684 18.1823C64.7376 18.2928 64.7852 18.4177 64.8075 18.5491C64.8298 18.6805 64.8258 18.8155 64.7972 18.9453C64.7288 19.2475 64.5793 19.521 64.3679 19.7316C64.1564 19.9161 63.8956 20.0207 63.6246 20.0294C63.5093 20.0356 63.394 20.0118 63.2891 19.96C63.1833 19.9083 63.0911 19.8299 63.0196 19.7316C62.9456 19.6191 62.8955 19.4902 62.8733 19.3542C62.851 19.2182 62.8566 19.0785 62.8908 18.9453M56.8997 29.4737C56.9598 29.148 56.715 28.9061 56.174 28.7804L55.4053 28.5804C55.1525 28.5969 54.9048 28.6648 54.6752 28.7804C54.5372 28.821 54.4116 28.9005 54.3112 29.0109C54.2109 29.1212 54.1394 29.2585 54.104 29.4086C54.0096 29.9017 54.4133 30.139 55.3236 30.139C55.7054 30.1562 56.0872 30.1043 56.4531 29.9854C56.5598 29.9484 56.6556 29.8815 56.7309 29.7917C56.8063 29.7019 56.8586 29.5922 56.8826 29.4737M56.8053 24.8213C57.4713 24.8213 57.9005 24.3095 58.0937 23.3046C58.1279 23.1839 58.139 23.0569 58.1263 22.9313C58.1136 22.8057 58.0778 22.6842 58.0206 22.5742C57.953 22.4811 57.8648 22.4078 57.7646 22.3607C57.6636 22.3137 57.5539 22.2943 57.445 22.3044C56.7752 22.3044 56.3329 22.8115 56.1096 23.8489C55.985 24.4863 56.204 24.8213 56.7881 24.8213M61.2499 20.9086L60.7602 22.4439H59.7768C59.8443 22.8157 59.8443 23.1981 59.7768 23.5698C59.6273 24.2941 59.2497 24.9391 58.7075 25.3935C58.1271 25.8882 57.4061 26.1495 56.6678 26.1333C56.3803 26.1247 56.0926 26.1465 55.809 26.1984C55.7319 26.2065 55.6594 26.2418 55.6027 26.299C55.546 26.3562 55.5083 26.432 55.4954 26.5148C55.474 26.5985 55.4954 26.673 55.6157 26.766C56.0373 26.9015 56.4681 27.001 56.904 27.0638C57.6644 27.2079 58.1923 27.4406 58.4412 27.8174C58.5787 28.0141 58.6717 28.2424 58.713 28.4846C58.7552 28.7268 58.744 28.9762 58.682 29.2131C58.3768 30.7298 57.1574 31.5021 55.0273 31.5021C54.2997 31.561 53.5712 31.3999 52.9231 31.0368C52.7185 30.9137 52.5579 30.7199 52.4668 30.4864C52.3758 30.2528 52.3595 29.9929 52.4206 29.7482C52.5624 29.0782 53.1721 28.5339 54.263 28.1804C54.0402 28.0701 53.8597 27.8794 53.7525 27.6409C53.6452 27.4024 53.6176 27.131 53.6746 26.873C53.8077 26.2217 54.3102 25.789 55.182 25.5797C54.8877 25.3608 54.6649 25.0467 54.5453 24.6825C54.4258 24.3181 54.4156 23.9222 54.5163 23.5512C54.6859 22.8023 55.0952 22.1429 55.6715 21.6903C56.2781 21.1636 57.0373 20.8867 57.8147 20.9086H61.2499ZM53.9495 20.9086L51.6562 27.9384H49.8225L52.0857 20.9086H53.9495ZM52.6611 18.9453C52.7253 18.6478 52.8758 18.3804 53.0906 18.1823C53.2962 17.9923 53.5548 17.8825 53.8249 17.8707C53.943 17.8686 54.0601 17.8956 54.1672 17.9496C54.2742 18.0036 54.3687 18.0832 54.4433 18.1823C54.5156 18.2913 54.5637 18.4168 54.5838 18.5491C54.6039 18.6815 54.5956 18.8171 54.5592 18.9453C54.4916 19.2479 54.3421 19.5217 54.1298 19.7316C53.918 19.9209 53.6529 20.026 53.3783 20.0294C53.2636 20.0337 53.1496 20.0091 53.0452 19.9574C52.9409 19.9057 52.849 19.8284 52.7771 19.7316C52.7078 19.6167 52.6607 19.4878 52.6386 19.3527C52.6164 19.2176 52.6198 19.0791 52.6482 18.9453M44.5618 19.1268L42.2943 26.1705H44.1409C44.6005 26.1792 45.0571 26.0886 45.484 25.9041C45.9109 25.7196 46.2996 25.4448 46.6275 25.0958C47.3263 24.3937 47.8026 23.4705 47.9887 22.4579C48.0994 22.0506 48.1248 21.6217 48.0631 21.2024C48.0015 20.7831 47.8543 20.3839 47.6323 20.034C47.3751 19.7089 47.05 19.4549 46.6841 19.2931C46.3181 19.1312 45.9218 19.0663 45.528 19.1036L44.5618 19.1268ZM43.1747 17.3682H46.2581C47.8127 17.3682 48.9035 17.8335 49.5348 18.8012C50.1661 19.7688 50.3206 21.0017 50.02 22.523C49.7358 24.0186 49.0199 25.3774 47.9759 26.4031C47.0595 27.3821 45.8273 27.9361 44.5403 27.9477H39.7563L43.1747 17.3682Z" fill="white"/>
<path fill-rule="evenodd" clip-rule="evenodd" d="M40.5293 35.1456H41.59C41.9381 35.1579 42.2794 35.0396 42.5563 34.8106C42.6706 34.7025 42.7605 34.5675 42.8194 34.4159C42.8782 34.2643 42.9042 34.1002 42.8955 33.936C42.9039 33.7698 42.8779 33.6037 42.8191 33.45C42.7604 33.2961 42.6706 33.1586 42.5563 33.0474C42.2814 32.8158 41.9375 32.7016 41.59 32.7264H40.5293V35.1456ZM40.5293 35.783V38.4721H39.9023V32.075H41.4526C42.0009 32.0439 42.5437 32.2073 42.9986 32.5403C43.1883 32.708 43.3388 32.9218 43.4381 33.1642C43.5373 33.4067 43.5824 33.6712 43.5698 33.936C43.5794 34.1951 43.5326 34.4529 43.4335 34.6889C43.3343 34.9249 43.1853 35.1323 42.9986 35.2945C42.5495 35.6435 42.0046 35.8174 41.4526 35.7876L40.5293 35.783Z" fill="white"/>
<path fill-rule="evenodd" clip-rule="evenodd" d="M46.0952 37.8515C46.2874 37.8564 46.4785 37.8175 46.6561 37.7374C46.8336 37.6573 46.9936 37.5377 47.1258 37.3864C47.2657 37.2298 47.3755 37.0448 47.4492 36.8421C47.5229 36.6393 47.5589 36.4229 47.5553 36.2051C47.5611 35.9877 47.526 35.7712 47.4522 35.5689C47.3783 35.3667 47.2673 35.1827 47.1258 35.0284C46.9974 34.8693 46.8389 34.7422 46.6611 34.6555C46.4832 34.5688 46.2902 34.5247 46.0952 34.5261C45.8978 34.5213 45.7019 34.5639 45.5215 34.6508C45.3411 34.7376 45.1806 34.8666 45.0516 35.0284C44.9107 35.1832 44.8001 35.3672 44.7263 35.5694C44.6525 35.7715 44.6171 35.9877 44.6221 36.2051C44.6156 36.6448 44.77 37.0695 45.0516 37.3864C45.1846 37.5405 45.3465 37.6618 45.5266 37.742C45.7067 37.8222 45.9006 37.8596 46.0952 37.8515ZM46.0952 38.484C45.8187 38.4964 45.543 38.4452 45.2861 38.3337C45.0293 38.2223 44.7971 38.0532 44.605 37.8375C44.226 37.3829 44.0161 36.792 44.0161 36.1795C44.0161 35.5669 44.226 34.9761 44.605 34.5214C45.0024 34.0996 45.5366 33.8633 46.093 33.8633C46.6495 33.8633 47.1837 34.0996 47.5811 34.5214C47.9557 34.9784 48.1625 35.5683 48.1625 36.1795C48.1625 36.7906 47.9557 37.3805 47.5811 37.8375C47.3901 38.0523 47.1594 38.2208 46.904 38.3322C46.6487 38.4436 46.3746 38.4954 46.0995 38.484" fill="white"/>
<path fill-rule="evenodd" clip-rule="evenodd" d="M50.6345 37.3263L51.794 33.7822H52.1762L53.3572 37.3217L54.594 33.8474H55.1695L53.5118 38.4751H53.1339L51.9744 35.0055L50.802 38.4751H50.4284L48.7708 33.8474H49.4063L50.6345 37.3263Z" fill="white"/>
<path fill-rule="evenodd" clip-rule="evenodd" d="M58.6733 35.6195C58.636 35.376 58.5414 35.147 58.399 34.9544C58.2893 34.8099 58.1494 34.6954 57.9912 34.6203C57.833 34.5451 57.6605 34.5114 57.488 34.5218C57.3226 34.5281 57.1604 34.5729 57.0122 34.6531C56.864 34.7334 56.7334 34.8472 56.6295 34.9869C56.4977 35.1793 56.3976 35.3949 56.3332 35.6241L58.6733 35.6195ZM56.2473 36.1683C56.246 36.385 56.2853 36.5998 56.3628 36.7996C56.4403 36.9994 56.5544 37.1802 56.6981 37.331C56.8376 37.4906 57.0062 37.6169 57.1933 37.7018C57.3806 37.7867 57.5818 37.8284 57.7845 37.824C58.0333 37.8247 58.2806 37.7775 58.5151 37.6844C58.7632 37.577 58.9945 37.4297 59.202 37.2473L59.3395 37.1217V37.8379H59.2966C59.0827 38.0376 58.8387 38.1951 58.5747 38.303C58.182 38.4544 57.7583 38.4884 57.3489 38.4017C56.9393 38.3149 56.5588 38.1106 56.2473 37.81C56.0487 37.5937 55.8933 37.3356 55.7906 37.0516C55.6879 36.7676 55.6402 36.4637 55.6503 36.1589C55.6275 35.5542 55.811 34.9615 56.1656 34.4939C56.3271 34.2839 56.5303 34.1162 56.7602 34.0034C56.99 33.8906 57.2407 33.8357 57.4927 33.8427C57.7487 33.8273 58.0039 33.8739 58.2416 33.9793C58.4785 34.0847 58.6908 34.2463 58.8625 34.4521C59.1845 34.9022 59.3515 35.4597 59.3348 36.0288V36.1217L56.2473 36.1683Z" fill="white"/>
<path fill-rule="evenodd" clip-rule="evenodd" d="M61.2499 34.5216C61.331 34.358 61.4415 34.2136 61.575 34.0969C61.7086 33.9801 61.862 33.8934 62.0274 33.8419C62.192 33.7903 62.3645 33.7749 62.5346 33.7967C62.7055 33.8183 62.8701 33.8766 63.0195 33.9682C63.0283 33.9687 63.0362 33.972 63.0434 33.9779C63.0506 33.9837 63.0553 33.9916 63.0577 34.0007V34.7263C63.0195 34.703 63.0577 34.7263 63.006 34.7263C62.0361 34.1402 61.4431 34.9821 61.2499 35.5541V38.4656H60.6528V33.8147H61.2499V34.5216Z" fill="white"/>
<path fill-rule="evenodd" clip-rule="evenodd" d="M67.4208 32.7444H65.5271V32.1582H69.9505V32.7444H68.0568V38.4063H67.4208V32.7444Z" fill="white"/>
<path fill-rule="evenodd" clip-rule="evenodd" d="M77.7328 32.8424V34.8848H80.1289V35.4896H77.7328V37.7739H80.5757V38.3834H77.1016V32.2329H80.4636V32.8424H77.7328Z" fill="white"/>
<path fill-rule="evenodd" clip-rule="evenodd" d="M82.2929 34.4331C82.436 34.2403 82.6173 34.0847 82.8232 33.9777C83.0291 33.8706 83.2549 33.8149 83.483 33.8145C83.6913 33.8061 83.8988 33.8457 84.092 33.9307C84.2852 34.0156 84.4601 34.1441 84.604 34.3075C84.6978 34.4178 84.7805 34.5395 84.8488 34.6703L84.9347 34.5168C85.081 34.3016 85.2718 34.1259 85.492 34.0033C85.7114 33.8807 85.9539 33.8145 86.2011 33.8099C86.4094 33.8008 86.6177 33.8401 86.8109 33.9251C87.0041 34.0101 87.1782 34.139 87.3221 34.3028C87.4684 34.471 87.5812 34.6692 87.6552 34.8858C87.7291 35.1023 87.7617 35.3328 87.7514 35.5633V38.3167H87.1289V35.5912C87.1424 35.286 87.0454 34.9871 86.8586 34.7587C86.7688 34.6502 86.6575 34.5654 86.5334 34.5105C86.4094 34.4557 86.2751 34.4324 86.1407 34.4424C85.9642 34.4515 85.7917 34.5029 85.6359 34.593C85.4801 34.6831 85.3449 34.8096 85.2392 34.9633C85.1597 35.0496 85.0905 35.1466 85.0333 35.2516V38.3167H84.4108V35.5912C84.4179 35.44 84.3981 35.2885 84.352 35.1457C84.3058 35.0028 84.2335 34.8712 84.1397 34.7587C84.0499 34.6515 83.9386 34.5676 83.8145 34.5129C83.6905 34.4582 83.5562 34.4341 83.4226 34.4424C83.2453 34.4521 83.0712 34.5037 82.9146 34.5937C82.7572 34.6837 82.6197 34.8099 82.5123 34.9633C82.4368 35.0544 82.3661 35.1507 82.3017 35.2516V38.3167H81.6919V33.8982H82.2929V34.4331Z" fill="white"/>
<path d="M89.082 33.9077H89.7053V34.466C89.8357 34.2286 90.0416 34.0515 90.2849 33.9682C90.653 33.8083 91.056 33.767 91.4456 33.8496C91.8351 33.9321 92.1937 34.1349 92.4791 34.4335C92.8392 34.9042 93.038 35.4952 93.0419 36.1065C93.0459 36.7178 92.8543 37.3117 92.5005 37.7878C91.7532 38.6717 90.6585 38.4717 89.7649 37.96L89.7053 37.9181V40.0721H89.082V33.9077ZM91.5903 34.7126C91.0751 34.3497 90.323 34.4335 89.718 35.3127V37.1132C90.3493 37.8483 91.1649 37.9181 91.7063 37.4901C91.8955 37.3154 92.0458 37.0961 92.1452 36.8488C92.2446 36.6016 92.2907 36.3329 92.2795 36.0636C92.2684 35.7942 92.2 35.5311 92.0808 35.2946C91.9615 35.058 91.7938 34.8542 91.5903 34.6986" fill="white"/>
<path fill-rule="evenodd" clip-rule="evenodd" d="M71.643 37.7305C71.8354 37.7374 72.0277 37.6996 72.205 37.6193C72.3831 37.5391 72.5429 37.4183 72.6741 37.2654C72.9539 36.9493 73.1082 36.5267 73.1034 36.0887C73.1066 35.6482 72.9523 35.2234 72.6741 34.9027C72.5453 34.7464 72.3855 34.6234 72.2074 34.5429C72.0293 34.4624 71.8362 34.4264 71.643 34.4376C71.449 34.4295 71.2558 34.467 71.0769 34.5472C70.8973 34.6275 70.7359 34.7487 70.6039 34.9027C70.3217 35.221 70.1674 35.6474 70.1746 36.0887C70.1698 36.3059 70.2056 36.5218 70.2795 36.7239C70.3535 36.9259 70.464 37.1101 70.6039 37.2654C70.7375 37.4169 70.8996 37.5366 71.0785 37.6167C71.2574 37.6967 71.4498 37.7355 71.643 37.7305ZM71.643 38.3677C71.3671 38.3774 71.092 38.325 70.8352 38.2137C70.5793 38.1024 70.3463 37.9347 70.1531 37.7211C69.9584 37.5025 69.8057 37.2437 69.7048 36.9601C69.6038 36.6765 69.5561 36.3739 69.5648 36.07C69.5521 35.763 69.5974 35.4562 69.6984 35.169C69.8002 34.8817 69.9544 34.6201 70.1531 34.4004C70.3455 34.1842 70.5769 34.0142 70.8337 33.9012C71.0904 33.7882 71.3663 33.7349 71.643 33.7446C71.9188 33.7335 72.1939 33.7863 72.4491 33.8994C72.7051 34.0125 72.9348 34.1833 73.1249 34.4004C73.322 34.6178 73.4762 34.8761 73.5788 35.1599C73.6814 35.4437 73.7298 35.7469 73.7219 36.0515C73.7283 36.3558 73.679 36.6585 73.5764 36.9421C73.4739 37.2255 73.3204 37.4841 73.1249 37.7026C72.9325 37.9149 72.7011 38.082 72.4459 38.1933C72.1915 38.3045 71.918 38.3575 71.643 38.349" fill="white"/>
<path fill-rule="evenodd" clip-rule="evenodd" d="M95.8849 37.7306C96.0773 37.7352 96.2689 37.6962 96.4462 37.6161C96.6235 37.536 96.7833 37.4166 96.9161 37.2655C97.1967 36.9501 97.3509 36.5271 97.3454 36.0888C97.3493 35.6482 97.1951 35.223 96.9161 34.9028C96.7833 34.7501 96.6235 34.6283 96.4462 34.5451C96.2681 34.4619 96.0765 34.419 95.8834 34.419C95.6894 34.419 95.4978 34.4619 95.3205 34.5451C95.1432 34.6283 94.9826 34.7501 94.8507 34.9028C94.7091 35.0596 94.5986 35.2452 94.5255 35.4489C94.4516 35.6526 94.4158 35.8701 94.4206 36.0888C94.415 36.3062 94.45 36.5227 94.5239 36.7249C94.5978 36.9272 94.7091 37.1111 94.8507 37.2655C94.9826 37.4166 95.1424 37.536 95.3205 37.6161C95.4978 37.6962 95.6886 37.7352 95.881 37.7306M95.881 38.3678C95.6043 38.3796 95.3292 38.328 95.0725 38.2167C94.8157 38.1053 94.5835 37.9364 94.3911 37.7213C94.1948 37.5034 94.0413 37.2448 93.9404 36.961C93.8394 36.6772 93.7925 36.3742 93.8028 36.0702C93.7893 35.7623 93.8354 35.4547 93.9388 35.1673C94.0413 34.8798 94.198 34.6186 94.3991 34.4005C94.5907 34.1829 94.822 34.0119 95.0796 33.8988C95.3364 33.7858 95.6123 33.7332 95.8897 33.7447C96.1664 33.7353 96.4422 33.7888 96.699 33.9018C96.9558 34.0146 97.1872 34.1846 97.3796 34.4005C97.5719 34.6207 97.7222 34.8799 97.8224 35.1633C97.9217 35.4467 97.9686 35.7485 97.9599 36.0516C97.9742 36.6631 97.7659 37.2563 97.3796 37.7027C97.1864 37.916 96.9534 38.0836 96.6974 38.1949C96.4407 38.3061 96.1656 38.3586 95.8897 38.3491" fill="white"/>
<path fill-rule="evenodd" clip-rule="evenodd" d="M100.428 37.3819L101.592 33.8193H101.983L103.146 37.3727L104.383 33.8938H104.977L103.318 38.5122H102.941L101.773 35.0518L100.609 38.5122H100.226L98.5688 33.8938H99.1961L100.428 37.3819Z" fill="white"/>
<path fill-rule="evenodd" clip-rule="evenodd" d="M108.489 35.6195C108.453 35.3754 108.359 35.1458 108.214 34.9544C108.105 34.81 107.967 34.6955 107.809 34.6204C107.652 34.5452 107.48 34.5115 107.308 34.5219C107.141 34.5247 106.978 34.5679 106.83 34.6484C106.681 34.7289 106.551 34.8447 106.449 34.987C106.312 35.1759 106.211 35.3925 106.152 35.6242L108.489 35.6195ZM106.067 36.1683C106.065 36.3852 106.104 36.6001 106.182 36.8C106.259 37 106.373 37.1806 106.517 37.331C106.656 37.4895 106.823 37.6151 107.009 37.7001C107.195 37.7849 107.394 37.8271 107.595 37.8241C107.845 37.8238 108.091 37.7765 108.326 37.6846C108.573 37.5823 108.803 37.4344 109.004 37.2474L109.154 37.1218V37.838H109.124C108.906 38.0375 108.657 38.1948 108.39 38.3031C107.995 38.4552 107.571 38.4897 107.16 38.403C106.749 38.3163 106.367 38.1115 106.054 37.8101C105.857 37.5923 105.704 37.3338 105.602 37.05C105.501 36.7664 105.452 36.4633 105.462 36.159C105.442 35.5557 105.624 34.965 105.972 34.494C106.143 34.2922 106.35 34.1304 106.581 34.0187C106.811 33.9069 107.06 33.8474 107.313 33.8439C107.566 33.8404 107.816 33.893 108.05 33.9984C108.283 34.1038 108.494 34.2598 108.669 34.4568C108.995 34.9055 109.165 35.4633 109.15 36.0335V36.1265L106.067 36.1683Z" fill="white"/>
<path fill-rule="evenodd" clip-rule="evenodd" d="M111.065 34.4747C111.148 34.3141 111.259 34.1726 111.392 34.0585C111.525 33.9444 111.678 33.8599 111.84 33.8098C112.003 33.7596 112.174 33.7449 112.343 33.7664C112.511 33.7879 112.674 33.8453 112.822 33.9351C112.822 33.9351 112.852 33.9351 112.869 33.9584V34.7118C112.818 34.6514 112.869 34.7118 112.818 34.6793C111.843 34.0886 111.255 34.9397 111.061 35.4979V38.4093H110.464V33.777H111.065V34.4747Z" fill="white"/>
<path d="M50.2565 28.9805H38.4897V29.7153H50.2565V28.9805Z" fill="white"/>
<path d="M113.264 28.9805H59.73V29.7153H113.264V28.9805Z" fill="white"/>
</svg>
