<svg width="170" height="50" viewBox="0 0 170 50" fill="none" xmlns="http://www.w3.org/2000/svg">
<path d="M20.033 45.5286H5.5293V46.5207H20.033V45.5286Z" fill="white"/>
<path d="M5.5293 43.8955V42.356H19.916L19.9769 43.8955H5.5293Z" fill="white"/>
<path d="M5.5293 40.6979V38.5808H19.8167L19.8615 40.6979H5.5293Z" fill="white"/>
<path d="M5.5293 36.9178V33.8481H19.6693L19.7398 36.9178H5.5293Z" fill="white"/>
<path d="M5.5293 32.2373V27.4905H46.7138L47.0167 32.2373H22.0935L19.2527 27.4921L19.5988 32.2373H5.5293Z" fill="white"/>
<path d="M5.5293 25.8496V19.9746H30.124L33.7676 25.8496L33.4263 19.9746H47.0167V25.8496H5.5293Z" fill="white"/>
<path d="M5.5293 18.326V6.86401L22.1656 6.91148L29.0521 18.326H5.5293Z" fill="white"/>
<path d="M47.0154 6.86401H33.425V18.326H47.0154V6.86401Z" fill="white"/>
<path d="M47.0169 33.8481V36.9178H25.2726L23.2104 33.8481H47.0169Z" fill="white"/>
<path d="M47.0165 38.5806V40.6977H27.7573L26.3457 38.5806H47.0165Z" fill="white"/>
<path d="M47.0169 42.356V43.8955H29.8887L28.8665 42.356H47.0169Z" fill="white"/>
<path d="M47.0167 45.53V46.5221H31.6574L30.9893 45.53H47.0167Z" fill="white"/>
<path d="M65.0838 45.5286H50.8926V46.5207H65.0838V45.5286Z" fill="white"/>
<path d="M65.0838 42.3545H50.8926V43.8941H65.0838V42.3545Z" fill="white"/>
<path d="M65.0838 38.5808H50.8926V40.6979H65.0838V38.5808Z" fill="white"/>
<path d="M65.0838 33.8481H50.8926V36.913H65.0838V33.8481Z" fill="white"/>
<path d="M65.0838 27.4905H50.8926V32.2389H65.0838V27.4905Z" fill="white"/>
<path d="M65.0838 19.9746H50.8926V25.8496H65.0838V19.9746Z" fill="white"/>
<path d="M65.0838 6.86401H50.8926V18.326H65.0838V6.86401Z" fill="white"/>
<path d="M89.4828 6.18677H97.0134V18.326H69.5891C72.9843 11.2058 80.6255 6.18677 89.4828 6.18677Z" fill="white"/>
<path d="M84.8365 19.9746C83.9662 20.6965 83.2632 21.5947 82.775 22.6083C82.2868 23.6219 82.0249 24.7273 82.0069 25.8496H67.71C67.8088 23.844 68.2089 21.864 68.8972 19.9746H84.8365Z" fill="white"/>
<path d="M82.1335 27.4905C82.4711 29.3554 83.4737 31.0393 84.9599 32.2373H68.5543C68.0854 30.6948 67.8162 29.0998 67.7532 27.4905H82.1335Z" fill="white"/>
<path d="M97.0137 33.8481V36.9178H70.6757C70.0664 35.9419 69.5458 34.9146 69.1199 33.8481H97.0137Z" fill="white"/>
<path d="M97.0141 38.5806V40.6977H73.7044C73.0293 40.0364 72.4023 39.329 71.8281 38.5806H97.0141Z" fill="white"/>
<path d="M97.0141 42.356V43.8955H77.803C77.0278 43.4224 76.279 42.9085 75.5598 42.356H97.0141Z" fill="white"/>
<path d="M97.0138 45.53V46.3845H84.1652C84.1652 46.3845 83.7374 46.53 81.1882 45.53H97.0138Z" fill="white"/>
<path d="M104.328 17.7944H106.225L109.662 23.7027V17.7944H111.347V26.266H109.538L106.013 20.2549V26.266H104.328V17.7944Z" fill="white"/>
<path d="M115.326 22.4557C115.554 22.4364 115.779 22.388 115.994 22.3117C116.097 22.2828 116.188 22.222 116.253 22.1382C116.318 22.0544 116.355 21.9522 116.356 21.8465C116.367 21.7409 116.346 21.6346 116.297 21.5403C116.248 21.446 116.172 21.3677 116.079 21.3149C115.824 21.2027 115.545 21.1523 115.265 21.1677C114.866 21.1677 114.581 21.2642 114.414 21.4541C114.284 21.6214 114.202 21.8204 114.177 22.03H112.561C112.576 21.542 112.744 21.0707 113.041 20.6804C113.485 20.1266 114.248 19.8502 115.331 19.8513C115.98 19.8396 116.622 19.9801 117.206 20.2611C117.754 20.5311 118.027 21.0443 118.026 21.8006V24.674C118.026 24.875 118.026 25.1155 118.039 25.3987C118.034 25.5508 118.068 25.7016 118.138 25.837C118.202 25.9201 118.287 25.9851 118.385 26.0253V26.2658H116.557C116.508 26.1512 116.472 26.0319 116.449 25.9098C116.43 25.799 116.416 25.6725 116.403 25.5316C116.169 25.7781 115.899 25.9887 115.602 26.1566C115.226 26.3637 114.801 26.4691 114.371 26.462C113.846 26.4816 113.333 26.3085 112.929 25.9763C112.549 25.6598 112.357 25.193 112.357 24.5997C112.357 23.8307 112.665 23.2721 113.275 22.9272C113.739 22.7023 114.241 22.5654 114.756 22.5237L115.326 22.4557ZM116.35 23.2199C116.249 23.2837 116.142 23.3367 116.03 23.3781C115.884 23.4283 115.733 23.4659 115.581 23.4905L115.2 23.5601C114.933 23.5942 114.673 23.6695 114.431 23.7832C114.304 23.8501 114.2 23.9511 114.13 24.0744C114.06 24.1977 114.027 24.3382 114.035 24.4794C114.024 24.5921 114.041 24.7056 114.083 24.8109C114.125 24.9161 114.191 25.0101 114.277 25.0854C114.445 25.2124 114.652 25.2783 114.863 25.2721C115.225 25.2724 115.578 25.1618 115.874 24.9557C116.183 24.7484 116.342 24.3718 116.355 23.8244L116.35 23.2199Z" fill="white"/>
<path d="M118.704 21.2248V20.0586H119.596V18.3181H121.253V20.0586H122.293V21.2248H121.253V24.5349C121.253 24.7928 121.285 24.9542 121.354 25.0096C121.423 25.065 121.623 25.1045 121.963 25.1045H122.123C122.179 25.1045 122.235 25.1045 122.283 25.095V26.3197L121.482 26.3482C120.69 26.3735 120.15 26.2422 119.859 25.9463C119.671 25.758 119.578 25.4716 119.578 25.0776V21.2248H118.704Z" fill="white"/>
<path d="M125.176 19.253H123.476V17.7419H125.176V19.253ZM123.476 20.0014H125.176V26.2657H123.476V20.0014Z" fill="white"/>
<path d="M131.81 25.5015C131.271 26.1523 130.45 26.4778 129.349 26.4778C128.248 26.4778 127.427 26.1523 126.886 25.5015C126.361 24.8268 126.075 23.9993 126.075 23.1478C126.075 22.2964 126.361 21.4689 126.886 20.7942C127.426 20.1318 128.247 19.8005 129.349 19.8005C130.451 19.8005 131.272 20.1318 131.81 20.7942C132.335 21.4694 132.619 22.2967 132.619 23.1478C132.619 23.999 132.335 24.8263 131.81 25.5015ZM130.471 24.5948C130.731 24.2541 130.862 23.7699 130.863 23.1423C130.864 22.5147 130.733 22.0316 130.471 21.6929C130.33 21.5335 130.156 21.4057 129.962 21.3182C129.767 21.2306 129.555 21.1853 129.341 21.1853C129.127 21.1853 128.915 21.2306 128.72 21.3182C128.526 21.4057 128.352 21.5335 128.211 21.6929C127.947 22.0316 127.815 22.5147 127.816 23.1423C127.817 23.7699 127.949 24.2541 128.211 24.5948C128.351 24.7552 128.525 24.8838 128.72 24.972C128.915 25.0602 129.127 25.1058 129.341 25.1058C129.555 25.1058 129.767 25.0602 129.962 24.972C130.157 24.8838 130.331 24.7552 130.471 24.5948Z" fill="white"/>
<path d="M138.861 20.3609C139.281 20.6995 139.491 21.2617 139.491 22.0476V26.2659H137.773V22.4558C137.787 22.1962 137.742 21.9369 137.642 21.6963C137.482 21.3799 137.161 21.2137 136.706 21.2137C136.144 21.2137 135.758 21.4495 135.548 21.921C135.431 22.2237 135.376 22.5465 135.388 22.8704V26.2659H133.708V20.0128H135.332V20.9257C135.494 20.6625 135.7 20.4278 135.94 20.2311C136.321 19.9671 136.78 19.8337 137.245 19.8514C137.828 19.8266 138.401 20.0071 138.861 20.3609Z" fill="white"/>
<path d="M143.463 22.4557C143.691 22.4364 143.916 22.388 144.131 22.3117C144.234 22.2829 144.325 22.222 144.39 22.1383C144.455 22.0545 144.492 21.9522 144.493 21.8465C144.504 21.741 144.483 21.6346 144.434 21.5403C144.385 21.446 144.309 21.3677 144.216 21.3149C143.961 21.203 143.683 21.1526 143.404 21.1677C143.003 21.1677 142.718 21.2643 142.551 21.4541C142.422 21.6218 142.34 21.8207 142.314 22.0301H140.698C140.715 21.5423 140.882 21.0713 141.178 20.6804C141.624 20.1266 142.387 19.8502 143.468 19.8513C144.117 19.8393 144.759 19.9798 145.343 20.2611C145.891 20.5311 146.165 21.0443 146.165 21.8007V24.6741C146.165 24.875 146.165 25.1155 146.176 25.3988C146.172 25.5507 146.206 25.7014 146.275 25.837C146.339 25.9198 146.424 25.9847 146.522 26.0253V26.2658H144.694C144.645 26.1513 144.609 26.0319 144.586 25.9098C144.567 25.7991 144.553 25.6725 144.54 25.5317C144.306 25.7781 144.036 25.9887 143.739 26.1567C143.364 26.3638 142.94 26.4691 142.51 26.4621C141.985 26.4815 141.471 26.3084 141.068 25.9763C140.689 25.6525 140.498 25.1936 140.497 24.5997C140.497 23.8307 140.803 23.2732 141.414 22.9272C141.877 22.7023 142.38 22.5655 142.894 22.5238L143.463 22.4557ZM144.487 23.22C144.386 23.2837 144.279 23.3367 144.166 23.3782C144.021 23.4286 143.87 23.4661 143.718 23.4905L143.337 23.5602C143.07 23.5945 142.81 23.6698 142.567 23.7833C142.442 23.8505 142.338 23.9516 142.268 24.0749C142.198 24.1982 142.165 24.3385 142.173 24.4795C142.162 24.592 142.179 24.7055 142.22 24.8107C142.262 24.916 142.328 25.0101 142.414 25.0855C142.582 25.2124 142.789 25.2784 143 25.2722C143.363 25.272 143.716 25.1615 144.013 24.9557C144.32 24.7484 144.479 24.3719 144.493 23.8244L144.487 23.22Z" fill="white"/>
<path d="M149.209 17.7942H147.533V26.2673H149.209V17.7942Z" fill="white"/>
<path d="M106.008 27.7327H104.211V36.2042H106.008V27.7327Z" fill="white"/>
<path d="M112.609 30.2991C113.026 30.6377 113.236 31.1999 113.237 31.9858V36.2041H111.518V32.394C111.531 32.1348 111.485 31.8759 111.385 31.6361C111.224 31.3197 110.904 31.1519 110.45 31.1519C109.886 31.1519 109.5 31.3893 109.289 31.8608C109.172 32.1636 109.118 32.4863 109.129 32.8102V36.201H107.456V29.951H109.077V30.8655C109.24 30.6019 109.446 30.3666 109.686 30.1693C110.066 29.9053 110.524 29.7724 110.989 29.7912C111.573 29.7658 112.147 29.9458 112.609 30.2991Z" fill="white"/>
<path d="M117.323 27.6551L117.675 27.6804V29.0143C117.581 29.0032 117.424 28.9937 117.203 28.9874C117.12 28.9758 117.036 28.9829 116.956 29.0082C116.877 29.0334 116.805 29.076 116.744 29.133C116.663 29.2266 116.619 29.3454 116.618 29.4684V29.9969H117.717V31.1535H116.618V36.2042H114.956V31.1535H114.016V29.9969H114.931V29.5887C114.931 28.9178 115.047 28.4557 115.278 28.2026C115.52 27.8271 116.107 27.6398 117.041 27.6409C117.146 27.6409 117.244 27.6409 117.329 27.6488" fill="white"/>
<path d="M123.9 35.443C123.358 36.096 122.538 36.4225 121.439 36.4225C120.336 36.4225 119.516 36.0965 118.976 35.443C118.45 34.7685 118.165 33.9413 118.165 33.0902C118.165 32.2391 118.45 31.4118 118.976 30.7373C119.518 30.0633 120.33 29.7468 121.439 29.7468C122.547 29.7468 123.361 30.0775 123.9 30.7405C124.424 31.4154 124.709 32.2425 124.709 33.0933C124.709 33.9442 124.424 34.7713 123.9 35.4462M122.56 34.5411C122.822 34.2004 122.953 33.7162 122.953 33.0886C122.953 32.461 122.822 31.9778 122.56 31.6392C122.42 31.4798 122.246 31.352 122.051 31.2645C121.856 31.1769 121.645 31.1316 121.431 31.1316C121.217 31.1316 121.005 31.1769 120.81 31.2645C120.615 31.352 120.442 31.4798 120.301 31.6392C120.036 31.9789 119.904 32.462 119.904 33.0886C119.904 33.7152 120.036 34.1994 120.301 34.5411C120.441 34.7015 120.615 34.8301 120.809 34.9183C121.004 35.0065 121.216 35.0521 121.431 35.0521C121.645 35.0521 121.857 35.0065 122.052 34.9183C122.247 34.8301 122.42 34.7015 122.56 34.5411Z" fill="white"/>
<path d="M129.346 29.7927C129.367 29.7927 129.415 29.7927 129.49 29.8022V31.4873C129.384 31.4779 129.29 31.4684 129.208 31.4652H129.008C128.334 31.4652 127.881 31.6799 127.651 32.1092C127.52 32.3507 127.456 32.7199 127.457 33.2168V36.2104H125.778V29.9446H127.38V31.0396C127.558 30.7205 127.785 30.4311 128.054 30.182C128.403 29.9133 128.837 29.7769 129.279 29.7975H129.357" fill="white"/>
<path d="M138.341 29.9636C138.634 30.0849 138.891 30.2789 139.086 30.5269C139.273 30.7614 139.398 31.0382 139.45 31.3323C139.496 31.6376 139.515 31.9462 139.507 32.2548L139.496 36.2104H137.78V32.2152C137.789 32.0137 137.748 31.8131 137.663 31.6298C137.515 31.3386 137.241 31.193 136.841 31.193C136.642 31.1763 136.442 31.2215 136.269 31.3225C136.097 31.4235 135.961 31.5752 135.88 31.7563C135.784 31.9837 135.738 32.2285 135.745 32.4747V36.2041H134.063V32.4747C134.079 32.1995 134.038 31.9241 133.944 31.6646C133.805 31.3608 133.528 31.2104 133.116 31.2104C132.635 31.2104 132.315 31.3608 132.155 31.6646C132.052 31.9087 132.008 32.173 132.027 32.4367V36.2073H130.328V29.951H131.946V30.8655C132.101 30.6025 132.3 30.3672 132.534 30.1693C132.899 29.9388 133.32 29.812 133.753 29.8028C134.185 29.7936 134.612 29.9023 134.986 30.1171C135.231 30.3179 135.421 30.5771 135.537 30.8703C135.729 30.5324 136.011 30.2533 136.353 30.0633C136.71 29.8888 137.104 29.8005 137.503 29.8054C137.789 29.8054 138.073 29.8591 138.339 29.9636" fill="white"/>
<path d="M143.463 32.3955C143.691 32.3751 143.916 32.3262 144.131 32.25C144.234 32.2211 144.325 32.1603 144.39 32.0765C144.455 31.9927 144.492 31.8904 144.493 31.7848C144.504 31.6792 144.484 31.5728 144.434 31.4784C144.385 31.3841 144.309 31.3058 144.216 31.2531C143.961 31.1425 143.682 31.0927 143.404 31.1076C143.003 31.1076 142.718 31.2025 142.551 31.394C142.422 31.5609 142.34 31.7593 142.314 31.9683H140.698C140.715 31.4805 140.882 31.0096 141.178 30.6186C141.624 30.067 142.387 29.7911 143.468 29.7911C144.117 29.7782 144.759 29.9175 145.343 30.1978C145.891 30.4699 146.165 30.9836 146.165 31.7389V34.6139C146.165 34.8133 146.165 35.0522 146.176 35.3354C146.171 35.4879 146.205 35.6392 146.275 35.7753C146.339 35.8585 146.424 35.9239 146.522 35.9652V36.2041H144.694C144.645 36.0896 144.609 35.9702 144.586 35.8481C144.567 35.7373 144.553 35.6107 144.54 35.4699C144.306 35.7191 144.036 35.9325 143.739 36.1028C143.364 36.3099 142.94 36.4153 142.51 36.4082C141.985 36.4274 141.472 36.2551 141.068 35.924C140.688 35.5981 140.497 35.1329 140.497 34.5459C140.497 33.7748 140.803 33.2173 141.414 32.8734C141.877 32.6491 142.38 32.5128 142.894 32.4715L143.463 32.3955ZM144.487 33.1582C144.386 33.2213 144.278 33.2743 144.166 33.3164C144.02 33.3659 143.87 33.404 143.718 33.4303L143.337 33.4984C143.07 33.5323 142.81 33.6082 142.567 33.7231C142.442 33.7898 142.338 33.8906 142.268 34.0136C142.198 34.1367 142.165 34.2769 142.173 34.4177C142.162 34.5303 142.178 34.6438 142.22 34.7491C142.262 34.8544 142.328 34.9485 142.414 35.0237C142.582 35.1507 142.789 35.2166 143 35.2104C143.363 35.2103 143.716 35.0998 144.013 34.894C144.32 34.6867 144.479 34.3101 144.493 33.761L144.487 33.1582Z" fill="white"/>
<path d="M146.841 31.171V30.0033H147.728V28.2485H149.385V29.997H150.423V31.171H149.385V34.4811C149.385 34.739 149.417 34.8973 149.485 34.9558C149.552 35.0144 149.755 35.0508 150.095 35.0508C150.146 35.0508 150.199 35.0508 150.255 35.0508C150.311 35.0508 150.367 35.0508 150.415 35.0428V36.2675L149.624 36.296C148.831 36.3245 148.292 36.1884 148.002 35.8941C147.813 35.7074 147.72 35.4194 147.72 35.0254V31.171H146.841Z" fill="white"/>
<path d="M153.314 29.1931H151.614V27.6804H153.314V29.1931ZM151.614 29.9399H153.314V36.2042H151.614V29.9399Z" fill="white"/>
<path d="M158.438 32.1883C158.41 31.961 158.326 31.7439 158.195 31.5554C158.007 31.3006 157.714 31.1756 157.318 31.1756C156.753 31.1756 156.367 31.4493 156.158 31.9968C156.037 32.3702 155.983 32.7616 155.998 33.1535C155.983 33.5292 156.038 33.9045 156.158 34.2611C156.232 34.4973 156.383 34.7025 156.588 34.8441C156.793 34.9858 157.04 35.0557 157.29 35.0427C157.681 35.0427 157.959 34.9383 158.124 34.7262C158.3 34.4919 158.404 34.2132 158.426 33.9224H160.135C160.09 34.4358 159.897 34.9258 159.581 35.3354C159.057 36.0522 158.277 36.4098 157.248 36.4098C156.219 36.4098 155.458 36.1107 154.973 35.5142C154.487 34.9177 154.244 34.1408 154.244 33.1883C154.244 32.1123 154.511 31.2763 155.045 30.6804C155.579 30.0844 156.32 29.7853 157.267 29.7832C158.071 29.7832 158.729 29.9594 159.241 30.3117C159.752 30.663 160.055 31.288 160.15 32.1804L158.438 32.1883Z" fill="white"/>
<path d="M162.469 34.2057C162.48 34.431 162.561 34.6476 162.7 34.826C162.908 35.0443 163.294 35.1535 163.857 35.1535C164.127 35.1647 164.397 35.1155 164.645 35.0095C164.728 34.9756 164.8 34.9194 164.852 34.8474C164.904 34.7753 164.935 34.6903 164.941 34.6019C164.947 34.5135 164.927 34.4252 164.885 34.3471C164.843 34.269 164.779 34.2041 164.701 34.1598C164.545 34.0617 163.962 33.8966 162.95 33.6646C162.223 33.4874 161.71 33.2674 161.412 33.0048C161.114 32.7421 160.965 32.3719 160.965 31.8766C160.964 31.5915 161.027 31.3097 161.148 31.0511C161.27 30.7925 161.447 30.5634 161.668 30.3798C162.133 29.9642 162.788 29.7563 163.633 29.7563C164.434 29.7563 165.086 29.9146 165.589 30.231C166.092 30.5475 166.39 31.0839 166.456 31.8481H164.783C164.771 31.6682 164.708 31.4953 164.6 31.3497C164.417 31.1261 164.102 31.0148 163.657 31.0158C163.294 31.0158 163.034 31.0712 162.878 31.182C162.809 31.223 162.752 31.2804 162.711 31.3489C162.671 31.4175 162.648 31.495 162.646 31.5744C162.641 31.6587 162.662 31.7425 162.706 31.8149C162.75 31.8874 162.815 31.9452 162.892 31.981C163.057 32.0696 163.64 32.221 164.641 32.4351C165.307 32.5892 165.807 32.8212 166.14 33.1313C166.301 33.2833 166.428 33.4665 166.513 33.6695C166.598 33.8724 166.639 34.0906 166.634 34.3101C166.641 34.6003 166.581 34.8883 166.458 35.1519C166.335 35.4155 166.152 35.6477 165.924 35.8307C165.443 36.2231 164.722 36.4193 163.73 36.4193C162.739 36.4193 161.978 36.212 161.498 35.7959C161.267 35.6015 161.082 35.3586 160.958 35.0849C160.833 34.8112 160.772 34.5136 160.779 34.2136L162.469 34.2057Z" fill="white"/>
<path d="M105.186 38.9241C105.881 38.2279 106.768 37.8792 107.845 37.8782C109.287 37.8782 110.341 38.3455 111.007 39.2801C111.352 39.7416 111.558 40.2901 111.601 40.8624H109.792C109.713 40.5285 109.561 40.2155 109.348 39.9446C109.028 39.5754 108.547 39.3908 107.906 39.3908C107.606 39.3817 107.309 39.4484 107.042 39.5846C106.775 39.7209 106.548 39.9221 106.382 40.1693C106.011 40.6904 105.824 41.4256 105.823 42.375C105.822 43.3244 106.019 44.0359 106.413 44.5095C106.589 44.7347 106.816 44.9161 107.076 45.0394C107.336 45.1628 107.621 45.2246 107.909 45.2199C108.531 45.2199 109.004 45.0169 109.329 44.6108C109.544 44.3166 109.697 43.9823 109.778 43.6282H111.582C111.459 44.4882 111.04 45.2804 110.396 45.8718C109.755 46.452 108.938 46.7416 107.945 46.7405C106.714 46.7405 105.746 46.3497 105.04 45.568C104.334 44.7864 103.983 43.7094 103.987 42.337C103.987 40.8602 104.389 39.7205 105.192 38.9177" fill="white"/>
<path d="M116.965 40.3672C117.416 40.5653 117.801 40.8871 118.072 41.2944C118.341 41.6812 118.515 42.1242 118.582 42.5887C118.633 43.0012 118.652 43.417 118.638 43.8324H113.971C113.998 44.4653 114.222 44.9062 114.64 45.1551C114.919 45.3177 115.239 45.3989 115.563 45.3893C115.898 45.4057 116.227 45.3042 116.493 45.1029C116.636 44.9837 116.753 44.8367 116.837 44.671H118.547C118.502 45.0444 118.295 45.421 117.927 45.8039C117.353 46.4125 116.552 46.7174 115.523 46.7184C114.703 46.7289 113.904 46.4564 113.266 45.9479C112.615 45.4342 112.29 44.5977 112.29 43.4384C112.29 42.3529 112.584 41.5207 113.171 40.9415C113.759 40.3624 114.522 40.0729 115.461 40.0729C115.978 40.0657 116.491 40.166 116.967 40.3672M114.464 41.7817C114.213 42.0492 114.057 42.3893 114.017 42.7517H116.901C116.899 42.5655 116.859 42.3817 116.782 42.2116C116.706 42.0415 116.594 41.8887 116.456 41.7627C116.178 41.5332 115.824 41.4126 115.462 41.4241C115.28 41.4126 115.097 41.4385 114.925 41.5C114.754 41.5615 114.597 41.6574 114.464 41.7817Z" fill="white"/>
<path d="M124.524 40.598C124.944 40.9398 125.154 41.4999 125.154 42.2863V46.5047H123.438V42.6945C123.451 42.4346 123.405 42.1752 123.304 41.935C123.143 41.6186 122.823 41.4603 122.371 41.4603C121.807 41.4603 121.421 41.6961 121.209 42.1676C121.093 42.4705 121.038 42.7932 121.049 43.117V46.5078H119.368V40.2515H120.99V41.166C121.152 40.9021 121.358 40.6668 121.599 40.4698C121.98 40.2058 122.438 40.0729 122.903 40.0917C123.486 40.0665 124.059 40.2459 124.521 40.598" fill="white"/>
<path d="M125.938 41.4651V40.2974H126.83V38.5569H128.487V40.2974H129.527V41.4651H128.487V44.7784C128.487 45.0347 128.52 45.193 128.588 45.2531C128.653 45.318 128.857 45.348 129.198 45.348H129.358L129.519 45.3385V46.5632L128.717 46.5917C127.926 46.617 127.386 46.4841 127.096 46.1882C126.909 46.0015 126.815 45.7125 126.814 45.3211V41.4651H125.938Z" fill="white"/>
<path d="M134.033 40.0934L134.178 40.1013V41.7801C134.073 41.769 133.976 41.7611 133.895 41.7579C133.813 41.7548 133.747 41.75 133.696 41.75C133.023 41.75 132.574 41.9668 132.339 42.3956C132.209 42.6377 132.145 43.0079 132.145 43.5111V46.5048H130.459V40.2405H132.062V41.3307C132.24 41.0119 132.469 40.7234 132.739 40.4763C133.087 40.208 133.52 40.0716 133.96 40.0918H134.039" fill="white"/>
<path d="M139.211 40.3672C139.662 40.5653 140.046 40.8871 140.317 41.2944C140.586 41.6811 140.761 42.1241 140.828 42.5887C140.879 43.0012 140.897 43.417 140.882 43.8323H136.22C136.245 44.4653 136.468 44.9062 136.888 45.1551C137.167 45.3173 137.487 45.3984 137.811 45.3893C138.145 45.4052 138.475 45.3038 138.742 45.1029C138.885 44.9832 139.002 44.8363 139.086 44.671H140.794C140.751 45.0444 140.542 45.421 140.176 45.8039C139.6 46.413 138.799 46.7184 137.772 46.7184C136.952 46.7285 136.155 46.456 135.516 45.9479C134.866 45.4341 134.54 44.5976 134.539 43.4384C134.539 42.3529 134.833 41.5206 135.422 40.9415C136.01 40.3624 136.773 40.0729 137.711 40.0729C138.229 40.0659 138.742 40.1661 139.217 40.3672M136.711 41.7817C136.462 42.0497 136.306 42.3896 136.266 42.7517H139.15C139.148 42.5654 139.107 42.3815 139.03 42.2114C138.954 42.0413 138.842 41.8886 138.703 41.7627C138.425 41.5329 138.072 41.4123 137.71 41.4241C137.527 41.413 137.344 41.439 137.172 41.5005C137 41.562 136.843 41.6577 136.71 41.7817" fill="white"/>
<path d="M141.83 14.9113C141.651 14.6407 141.19 13.9951 140.257 12.6961C139.212 11.2483 138.783 10.5758 138.615 10.2641L139.768 9.4872C139.844 9.66475 139.934 9.83616 140.038 9.99986C140.082 10.0888 140.147 10.1659 140.227 10.2249C140.308 10.2838 140.402 10.3227 140.501 10.3385H140.542C140.61 10.3413 140.677 10.3221 140.732 10.2838C140.788 10.2455 140.829 10.1902 140.85 10.1264C140.867 10.0571 140.875 9.98582 140.874 9.91442V8.17391H139.236V6.89385H143.061L142.885 6.65651C142.829 6.58056 142.792 6.52518 142.769 6.49828C142.559 6.13621 142.458 5.72225 142.478 5.30524C142.482 5.02716 142.55 4.75368 142.677 4.50537C142.804 4.25706 142.986 4.0404 143.21 3.8717C143.676 3.51094 144.311 3.32739 145.096 3.32739C145.942 3.32739 147.166 3.76727 147.999 4.75144C148.503 5.36326 148.907 6.04865 149.198 6.78309V14.8733H147.555V8.17391H145.966V14.8733H144.33V11.4429H143.628L142.934 10.2388L144.33 10.253V8.17391H142.505V10.0901C142.504 10.398 142.398 10.6965 142.202 10.9366C141.984 11.2302 141.667 11.4373 141.308 11.5204L141.087 11.5774L141.234 11.7578C141.395 11.9556 141.616 12.2214 141.885 12.5647C142.255 12.9682 142.654 13.4445 143.079 13.9888L141.83 14.9113ZM144.924 4.53784C144.837 4.53775 144.749 4.54409 144.662 4.55682C144.523 4.57329 144.39 4.61828 144.271 4.68888C144.151 4.75948 144.048 4.85411 143.968 4.96663C143.847 5.1557 143.788 5.37633 143.796 5.59954C143.787 5.84608 143.855 6.08945 143.994 6.29509C144.132 6.50073 144.332 6.65819 144.566 6.74511C144.756 6.83126 144.96 6.88477 145.168 6.90334H146.886C147.567 6.90334 147.567 6.90334 147.567 6.74511V6.72454V6.70397C147.275 5.68024 146.125 4.53942 144.931 4.53942" fill="white"/>
<path d="M134.269 15.4716C134.063 15.3134 133.83 15.0982 133.585 14.8608L133.547 14.8229H133.492C133.46 14.8229 133.407 14.8229 133.342 14.8229C133.324 14.8229 133.254 14.8229 133.254 14.8229H133.023C132.64 14.8214 132.267 14.6989 131.959 14.4732C131.829 14.3861 131.724 14.2678 131.653 14.1293C131.583 13.9909 131.549 13.8369 131.555 13.682C131.554 13.5595 131.579 13.438 131.628 13.3254C131.677 13.2129 131.749 13.1117 131.84 13.0286C132.048 12.8455 132.32 12.7511 132.598 12.7659C132.759 12.7668 132.919 12.7968 133.069 12.8545C133.49 13.0369 133.847 13.3387 134.093 13.7216C134.11 13.7445 134.132 13.7629 134.157 13.7754C134.182 13.7878 134.211 13.7938 134.239 13.7928C134.325 13.7874 134.408 13.7659 134.486 13.7295L134.551 13.7042C134.746 13.6234 134.918 13.4962 135.051 13.3339C135.169 13.1896 135.252 13.0213 135.295 12.8411C135.338 12.661 135.339 12.4737 135.3 12.2928C135.287 12.2258 135.258 12.1628 135.215 12.1093C135.189 12.0795 135.157 12.0558 135.121 12.0399C135.085 12.024 135.046 12.0163 135.007 12.0175C134.97 12.018 134.933 12.0233 134.898 12.0333C134.774 12.0655 134.653 12.1084 134.537 12.1615C134.452 12.1963 134.366 12.2327 134.276 12.2596C134.143 12.2994 134.006 12.3191 133.867 12.3181C133.639 12.3164 133.414 12.2707 133.204 12.1836C132.861 12.0403 132.555 11.8242 132.307 11.5507C131.756 10.9431 131.488 10.4241 131.488 9.96844C131.487 9.84388 131.514 9.72062 131.568 9.60797C131.621 9.49532 131.701 9.39621 131.799 9.31812C131.982 9.155 132.222 9.06678 132.469 9.07129H134.774V8.17255H130.104V14.8735H128.458V8.17255H126.923V14.8735H125.279V11.7976L125.09 11.8703C125.014 11.9008 124.933 11.9159 124.851 11.9146C124.784 11.9141 124.717 11.9061 124.651 11.8909L124.47 11.8529L124.484 12.046C124.544 12.8371 124.35 13.4479 123.909 13.8561C123.504 14.2232 122.913 14.4083 122.147 14.4083C121.515 14.4083 120.887 14.1377 120.279 13.6029C119.536 12.9327 118.966 12.0981 118.614 11.1678L119.811 10.6726C119.892 10.8308 119.971 10.989 120.045 11.1472C120.181 11.4459 120.338 11.7355 120.512 12.0143C120.767 12.4099 121.208 12.9099 121.855 13.0586C121.949 13.0805 122.045 13.0916 122.142 13.0919C122.358 13.1 122.569 13.0277 122.733 12.8893C123.054 12.6029 123.081 12.0491 122.921 11.701C122.719 11.2517 122.232 11.1377 121.959 11.1077H121.898C121.823 11.1077 121.682 11.1077 121.548 11.1172L121.29 11.1283C121.206 10.9447 121.001 10.4953 120.886 10.2501C121.1 10.1915 121.427 10.0745 121.64 9.99692C121.885 9.92282 122.099 9.77099 122.248 9.56496C122.344 9.40988 122.393 9.23096 122.39 9.04914C122.399 8.90316 122.359 8.75839 122.278 8.63616C122.216 8.55381 122.134 8.48772 122.04 8.44361C121.946 8.3995 121.842 8.37869 121.738 8.383C121.415 8.39564 121.105 8.51547 120.859 8.72319C120.677 8.86366 120.512 9.02279 120.365 9.19787C120.009 8.4273 119.849 8.05705 119.753 7.87983C119.797 7.83488 119.845 7.7936 119.896 7.75641C120.434 7.3473 121.093 7.12384 121.772 7.12034C122.336 7.10058 122.889 7.28578 123.324 7.64091C123.518 7.79633 123.672 7.99335 123.776 8.21687C123.88 8.4404 123.931 8.68449 123.925 8.93046C123.945 9.36394 123.791 9.78761 123.496 10.1093L123.348 10.2675L123.542 10.3498C123.634 10.3941 123.724 10.4437 123.81 10.4985C124.018 10.6267 124.255 10.7707 124.483 10.7707H124.523C124.523 10.7707 125.281 10.6852 125.281 10.4368V6.89091H132.526H132.768C133.172 6.89091 133.581 6.89091 133.991 6.89091H134.792H135.13L134.893 6.64565C134.638 6.37508 134.215 5.91306 134.153 5.81971C133.978 5.54139 133.893 5.21778 133.907 4.89091C133.934 4.55178 134.061 4.22789 134.273 3.9599C134.485 3.69191 134.773 3.49176 135.099 3.38458C135.353 3.31028 135.617 3.27088 135.881 3.26749C136.11 3.26242 136.336 3.30558 136.546 3.39407C137.027 3.61717 137.075 3.75958 136.99 4.54281L136.936 4.52382C136.831 4.48584 136.737 4.45578 136.646 4.42888C136.455 4.37125 136.258 4.33931 136.059 4.33395C135.892 4.32746 135.727 4.364 135.579 4.43996C135.463 4.50553 135.364 4.59689 135.29 4.70677C135.217 4.81665 135.17 4.94201 135.154 5.07287C135.131 5.21238 135.141 5.35517 135.182 5.49053C135.223 5.6259 135.294 5.75033 135.391 5.85452C135.448 5.91776 135.501 5.98377 135.551 6.0523C135.614 6.12983 135.678 6.21053 135.726 6.25958C135.854 6.39724 135.966 6.4985 136.08 6.6061C136.149 6.66781 136.218 6.73268 136.296 6.80863V8.32445V10.1235L133.113 10.1156L133.239 10.3371C133.263 10.3798 133.473 10.7453 133.56 10.845L133.611 10.9067C133.741 11.1041 133.931 11.2554 134.154 11.3387C134.216 11.3567 134.28 11.3658 134.345 11.3656C134.529 11.354 134.71 11.3095 134.878 11.2343L134.968 11.201C135.284 11.0876 135.617 11.0298 135.953 11.0301C136.164 11.0186 136.374 11.0617 136.562 11.1551C136.948 11.3719 136.993 11.8798 136.99 12.2991C136.98 13.2121 136.53 13.8925 135.611 14.3783C135.542 14.4178 135.49 14.4463 135.438 14.4716L135.196 14.5839L135.42 14.7311C135.724 14.9289 136.787 15.5222 136.889 15.5776L136.859 15.6156L135.952 16.6377L134.269 15.4716Z" fill="white"/>
<path d="M108.422 16.5728C108.376 16.5733 108.329 16.568 108.284 16.557C108.06 16.5016 107.914 16.2833 107.773 16.0728C107.744 16.0285 107.716 15.9842 107.687 15.9447L107.498 15.6789C107.547 15.6789 107.599 15.6789 107.658 15.6789C107.759 15.6803 107.861 15.6659 107.958 15.6361C108.033 15.6096 108.1 15.565 108.153 15.5064C108.191 15.4641 108.218 15.4128 108.23 15.3573C108.243 15.3019 108.24 15.2442 108.223 15.1899C108.192 15.1037 108.131 15.0307 108.052 14.9827L108.023 14.9605C107.919 14.8782 107.817 14.7944 107.714 14.7105L104.468 12.076V6.89722H109.616H116.815V14.8735H115.174V11.076H113.182V11.8988C113.181 12.0175 113.151 12.1342 113.094 12.239C113.062 12.3247 113.003 12.3979 112.925 12.4476C112.848 12.4972 112.756 12.5206 112.663 12.5143H112.639C112.518 12.5143 112.215 12.3846 111.518 11.5792C110.798 10.7437 110.717 10.4558 110.717 10.3703C110.717 9.92095 110.931 9.72158 111.412 9.72158H115.171V8.17412H109.643V10.8102C109.647 10.9681 109.615 11.1248 109.547 11.2681C109.48 11.4114 109.38 11.5373 109.255 11.6361C108.963 11.8954 108.586 12.0406 108.193 12.0444L106.938 11.0096C107.559 10.9922 107.759 10.932 107.855 10.8846C107.908 10.8559 107.951 10.811 107.976 10.7565C108.002 10.7021 108.009 10.641 107.996 10.5823V8.17412H106.1V11.72L107.031 12.4858L108.65 13.8197L109.267 14.3292C109.408 14.4305 109.527 14.559 109.616 14.707C109.706 14.8549 109.764 15.0192 109.787 15.1899C109.821 15.44 109.76 15.6935 109.616 15.902C109.51 16.0451 109.378 16.1674 109.226 16.2627C108.994 16.4371 108.716 16.5434 108.425 16.5697" fill="white"/>
<path d="M125.807 8.17411H124.321V6.89404H127.995" fill="white"/>
<path d="M114.076 6.89404H117.749V8.17252H116.264" fill="white"/>
<path d="M133.462 6.89404H137.136V8.17252H135.651" fill="white"/>
</svg>
