<svg width="125" height="47" viewBox="0 0 125 47" fill="none" xmlns="http://www.w3.org/2000/svg">
<path fill-rule="evenodd" clip-rule="evenodd" d="M38.019 44.0428C37.9141 44.1157 37.8101 44.1869 37.707 44.2589C36.6534 44.9953 35.4885 45.4506 34.2034 45.5947C33.914 45.6276 33.6228 45.6508 33.3325 45.6534C32.4579 45.6614 31.5834 45.6641 30.7079 45.6552C28.8928 45.6365 27.2749 45.0629 25.8803 43.9218C24.5292 42.8155 23.6745 41.4041 23.3001 39.7134C23.1699 39.1256 23.1355 38.5297 23.1355 37.9303C23.1373 35.0256 23.1364 32.121 23.1364 29.2164C23.1364 25.0026 23.1364 20.7888 23.1364 16.5751C23.1364 16.4141 23.1364 16.2531 23.1364 16.1064C23.2666 15.9961 23.3987 16.0326 23.5208 16.0326C24.7254 16.0299 25.9291 16.0308 27.1338 16.0308C27.5778 16.0308 28.021 16.0299 28.465 16.0317C28.5763 16.0326 28.6884 16.0423 28.8187 16.0494C28.8295 16.1366 28.8431 16.2078 28.8458 16.2789C28.8503 16.4034 28.8476 16.5279 28.8476 16.6524C28.8476 23.6961 28.8476 30.7398 28.8476 37.7835C28.8476 37.9329 28.8458 38.0832 28.8521 38.2326C28.891 39.2332 29.6941 40.0238 30.7143 40.0407C31.5761 40.0549 32.438 40.0558 33.2999 40.0407C34.434 40.0202 35.1783 39.114 35.1774 38.2104C35.1774 38.0859 35.1783 37.9614 35.1783 37.8369C35.1783 30.7434 35.1783 23.6499 35.1792 16.5564C35.1792 16.3972 35.1647 16.2353 35.1946 16.0957C35.2244 16.069 35.2335 16.0592 35.2443 16.0539C35.2552 16.0486 35.2687 16.0441 35.2805 16.0441C37.0802 16.0397 38.88 16.0361 40.6797 16.0326C40.7285 16.0326 40.7783 16.0432 40.8479 16.0512C40.8606 16.1242 40.8805 16.1935 40.8841 16.2638C40.8904 16.3883 40.8859 16.5128 40.8859 16.6382C40.8859 23.6943 40.8859 30.7505 40.8877 37.8066C40.8877 38.0423 40.9031 38.2798 40.9374 38.5128C41.0405 39.2234 41.6836 39.9989 42.7091 40.0363C43.6081 40.0692 44.5098 40.0665 45.4087 40.0371C46.4271 40.0033 47.1687 39.21 47.2202 38.3011C47.2302 38.1268 47.2256 37.9525 47.2256 37.7773C47.2256 30.7211 47.2256 23.665 47.2256 16.6089C47.2256 16.4354 47.2292 16.262 47.2311 16.1046C47.3785 15.9916 47.5232 16.0334 47.6579 16.0334C49.0652 16.0299 50.4724 16.0317 51.8796 16.0317C52.1328 16.0317 52.387 16.0299 52.6402 16.0326C52.727 16.0334 52.8138 16.0441 52.9178 16.0521C52.9305 16.1313 52.9477 16.2024 52.9522 16.2736C52.9576 16.3607 52.954 16.4479 52.954 16.535C52.954 23.6285 52.954 30.722 52.954 37.8155C52.954 38.6035 52.8835 39.3826 52.6709 40.1456C51.9438 42.7532 49.842 44.7792 47.1777 45.432C46.598 45.5743 46.0101 45.657 45.4105 45.6561C44.498 45.6552 43.5846 45.6659 42.672 45.6534C41.1346 45.6321 39.7328 45.1821 38.4666 44.3256C38.3418 44.2411 38.217 44.1549 38.0922 44.0704C38.0832 44.0633 38.0705 44.0615 38.019 44.0428Z" fill="white"/>
<path fill-rule="evenodd" clip-rule="evenodd" d="M105.316 45.8115C105.304 45.7279 105.29 45.6808 105.29 45.6327C105.29 43.8745 105.291 42.1171 105.293 40.3589C105.293 40.3242 105.311 40.2886 105.325 40.2343C105.394 40.2255 105.467 40.2077 105.539 40.2068C105.83 40.2032 106.122 40.205 106.413 40.205C109.748 40.205 113.082 40.1979 116.417 40.2121C116.932 40.2148 117.355 40.0636 117.739 39.7479C118.594 39.0453 119.122 38.1621 119.242 37.0682C119.419 35.4674 118.816 34.1947 117.512 33.236C117.229 33.0279 116.909 32.9336 116.553 32.9354C115.323 32.9399 114.094 32.9514 112.864 32.9318C110.688 32.8981 108.772 32.1732 107.146 30.7485C105.604 29.3967 104.655 27.7033 104.34 25.6996C103.631 21.203 106.485 17.233 110.554 16.0946C111.389 15.8607 112.24 15.7531 113.106 15.7531C115.832 15.7513 118.558 15.7522 121.283 15.7522C121.613 15.7522 121.943 15.7513 122.273 15.7531C122.359 15.7531 122.445 15.7628 122.549 15.77C122.561 15.8464 122.579 15.9051 122.579 15.963C122.581 17.6963 122.58 19.4288 122.579 21.1621C122.579 21.2101 122.569 21.2591 122.561 21.3284C122.488 21.3418 122.417 21.3622 122.346 21.3667C122.232 21.3738 122.118 21.3693 122.004 21.3693C119.088 21.3693 116.172 21.3693 113.256 21.3693C112.901 21.3693 112.548 21.3907 112.201 21.4778C110.877 21.8087 109.821 23.0502 109.957 24.5924C110.097 26.1959 111.341 27.111 112.466 27.2684C112.678 27.2987 112.893 27.3191 113.108 27.32C114.616 27.3245 116.125 27.3271 117.634 27.3182C117.971 27.3165 118.286 27.3769 118.597 27.4926C121.802 28.6843 124.189 31.3897 124.833 34.8093C125.707 39.4464 123.075 43.9314 118.737 45.6016C118.352 45.7492 117.965 45.8293 117.553 45.8293C113.584 45.8266 109.616 45.8275 105.647 45.8266C105.548 45.8284 105.448 45.8186 105.316 45.8115Z" fill="white"/>
<path fill-rule="evenodd" clip-rule="evenodd" d="M70.7931 31.2086C70.8039 30.4597 70.8826 29.7376 70.7804 29.0172C70.5805 27.604 69.5043 26.2931 67.8755 25.9071C67.5138 25.8217 67.1484 25.8128 66.7803 25.8128C64.2317 25.8128 61.6841 25.8128 59.1355 25.8128C59.0089 25.8128 58.8823 25.8146 58.7557 25.8084C58.7077 25.8066 58.6607 25.7862 58.6182 25.7746C58.5685 25.4847 58.5612 22.2892 58.6101 21.9006C58.6752 21.889 58.7466 21.8668 58.8181 21.8659C59.122 21.8614 59.4267 21.8632 59.7306 21.8632C62.139 21.8632 64.5483 21.8579 66.9567 21.8641C69.1408 21.8694 71.0183 22.6307 72.563 24.1453C73.8164 25.3744 74.539 26.8747 74.7769 28.5965C74.8293 28.9781 74.8402 29.3676 74.8402 29.7527C74.8447 33.4675 74.8429 37.1824 74.8438 40.8972C74.8438 41.0466 74.8501 41.196 74.8583 41.3454C74.8818 41.767 75.2788 42.2383 75.7835 42.3033C75.9463 42.3246 76.1118 42.3362 76.2754 42.3362C77.074 42.3397 77.8726 42.3371 78.6712 42.3388C78.8077 42.3388 78.9452 42.3468 79.0582 42.3504C79.0881 42.3878 79.0971 42.3975 79.1035 42.4082C79.1098 42.4189 79.1179 42.4295 79.1188 42.4411C79.1225 43.6497 79.1261 44.8593 79.1279 46.0679C79.1279 46.1159 79.117 46.164 79.108 46.2342C79.032 46.2467 78.9615 46.268 78.89 46.268C77.5335 46.2698 76.1769 46.2787 74.8203 46.2662C73.0839 46.2502 71.371 45.0354 70.9251 43.1135C70.8998 43.0059 70.8717 42.9 70.8365 42.7622C70.5118 43.0672 70.2251 43.3616 69.9104 43.6257C69.602 43.8836 69.2791 44.1282 68.9391 44.3443C68.5891 44.5667 68.2219 44.7677 67.8439 44.9411C67.4667 45.1136 67.0733 45.2604 66.6745 45.3804C66.2883 45.4969 65.8913 45.5877 65.4915 45.6481C65.0801 45.7104 64.6604 45.7433 64.2435 45.7513C63.8266 45.7584 63.406 45.7406 62.9918 45.6917C62.5912 45.6446 62.1905 45.5654 61.8008 45.4623C61.3983 45.3555 61.0013 45.2212 60.6178 45.0612C60.2343 44.9011 59.8599 44.7125 59.5018 44.5017C59.1554 44.2972 58.8217 44.0651 58.5079 43.8143C58.1841 43.5555 57.8739 43.2762 57.589 42.9765C54.5051 39.7304 54.4038 34.7251 57.3439 31.3366C57.816 30.7932 58.3469 30.3139 58.9393 29.9021C59.5307 29.4903 60.1629 29.1506 60.8403 28.8918C61.5159 28.633 62.2104 28.4533 62.9312 28.3626C63.6647 28.2692 64.3963 28.2675 65.1298 28.3475C65.8506 28.4258 66.5506 28.5956 67.2289 28.8473C67.9081 29.0981 68.5457 29.4281 69.1426 29.8336C69.7404 30.2347 70.2739 30.7052 70.7931 31.2086ZM64.0861 32.2269C61.2943 32.2633 59.2052 34.4529 59.2223 37.0543C59.2395 39.6619 61.3486 41.8283 64.1069 41.8168C67.0507 41.8052 68.987 39.4226 68.9716 36.9965C68.9572 34.5588 66.9802 32.2535 64.0861 32.2269Z" fill="white"/>
<path fill-rule="evenodd" clip-rule="evenodd" d="M94.9526 31.1878C94.9218 30.4674 95.0005 29.7444 94.9001 29.0249C94.6967 27.5575 93.5616 26.259 91.9645 25.9015C91.6398 25.8285 91.3124 25.8134 90.9823 25.8134C89.803 25.8134 88.6246 25.8134 87.4453 25.8134C86.0127 25.8134 84.5802 25.8143 83.1476 25.8116C83.012 25.8116 82.8691 25.8428 82.7289 25.7654C82.7199 25.7218 82.7009 25.6747 82.7009 25.6275C82.6991 24.394 82.7 23.1605 82.7 21.9109C82.7868 21.8931 82.8573 21.8745 82.9288 21.8665C82.9912 21.8594 83.0554 21.8638 83.1187 21.8638C85.7812 21.8638 88.4428 21.8594 91.1053 21.8647C93.0308 21.8682 94.7355 22.4837 96.2024 23.7083C97.5201 24.8085 98.3657 26.1985 98.7601 27.8536C98.9029 28.4513 98.959 29.0569 98.959 29.6706C98.9581 33.3978 98.9581 37.126 98.959 40.8533C98.959 41.0152 98.9581 41.1779 98.9771 41.3389C99.0377 41.8503 99.4112 42.23 99.9321 42.3101C100.081 42.3332 100.235 42.3385 100.386 42.3394C101.185 42.3421 101.983 42.3403 102.782 42.3412C102.919 42.3412 103.058 42.3474 103.21 42.351C103.225 42.4408 103.247 42.512 103.247 42.5822C103.249 43.7419 103.249 44.9017 103.248 46.0605C103.248 46.1094 103.239 46.1583 103.234 46.2037C103.122 46.3086 102.989 46.2704 102.868 46.2704C101.803 46.2739 100.738 46.2722 99.6735 46.2722C99.4329 46.2722 99.1914 46.2739 98.9509 46.2704C97.1358 46.2455 95.4328 44.9559 95.0331 43.0527C95.0159 42.9691 94.9906 42.8873 94.9653 42.793C94.8233 42.8188 94.7726 42.9282 94.7003 43.0038C93.7344 44.0079 92.593 44.7514 91.2744 45.2289C89.879 45.7341 88.4446 45.8693 86.9723 45.6754C83.5763 45.2289 80.4236 42.7414 79.5518 38.9723C78.4493 34.2054 81.4881 29.5985 86.1846 28.5188C89.2767 27.8074 92.4981 28.7643 94.6713 31.017C94.7383 31.0864 94.8106 31.1513 94.8802 31.2189C94.9047 31.2074 94.9282 31.1976 94.9526 31.1878ZM88.2032 32.2266C85.4357 32.2621 83.3231 34.4233 83.3403 37.0549C83.3575 39.6927 85.4954 41.8272 88.2258 41.8174C91.0845 41.8076 93.1031 39.5139 93.0887 36.9953C93.0751 34.49 91.0411 32.2515 88.2032 32.2266Z" fill="white"/>
<path fill-rule="evenodd" clip-rule="evenodd" d="M12.8295 33.4042C13.3902 33.3579 13.8695 33.4148 14.3434 33.4878C16.0147 33.7439 17.5286 34.3736 18.8671 35.3963C19.521 35.8961 20.0989 36.4698 20.6063 37.1137C20.7139 37.2506 20.7537 37.3867 20.7428 37.561C20.6135 39.6679 19.8719 41.5409 18.5171 43.1746C17.4038 44.5175 16.0093 45.4834 14.3642 46.1015C14.0648 46.2135 13.7583 46.2785 13.4372 46.2767C13.3359 46.2758 13.2346 46.2785 13.1333 46.2785C9.26798 46.2785 5.40173 46.2785 1.53638 46.2776C1.38716 46.2776 1.23432 46.298 1.09233 46.25C1.02269 45.9316 0.993752 42.6259 1.0444 40.9361C1.04711 40.8516 1.06701 40.768 1.08238 40.6613C1.24698 40.6595 1.39711 40.656 1.54724 40.6551C5.09605 40.6551 8.64486 40.6497 12.1937 40.6613C12.6775 40.6631 13.0845 40.5368 13.4535 40.2389C14.5794 39.3273 15.1239 38.1622 15.0271 36.7286C14.9421 35.4728 14.3543 34.4767 13.3341 33.7252C13.1939 33.622 13.0411 33.5376 12.8295 33.4042Z" fill="white"/>
<path fill-rule="evenodd" clip-rule="evenodd" d="M7.88659 26.8865C4.96632 26.705 2.34993 25.7428 0.0202331 24.0316C-0.0195599 23.7026 0.00576388 23.3913 0.041035 23.0845C0.506794 19.0975 3.53378 16.2311 7.09254 15.5783C7.59176 15.4867 8.09369 15.4307 8.60196 15.4307C11.732 15.4316 14.8621 15.4298 17.9922 15.4307C18.0926 15.4307 18.1921 15.4396 18.2897 15.4449C18.3874 15.5783 18.3467 15.7197 18.3476 15.8522C18.3512 17.3099 18.3494 18.7684 18.3494 20.2261C18.3494 20.4253 18.3503 20.6245 18.3476 20.8246C18.3467 20.8842 18.335 20.9438 18.325 21.0274C18.1731 21.0336 18.0365 21.0425 17.9009 21.0425C16.2151 21.0434 14.5302 21.0434 12.8444 21.0434C11.5014 21.0434 10.1575 21.0461 8.81449 21.0416C8.37767 21.0407 7.95713 21.111 7.55468 21.2773C6.35184 21.7753 5.70973 22.9297 5.70702 24.0067C5.7043 25.1033 6.37174 26.263 7.54382 26.7424C7.65959 26.7886 7.77263 26.8384 7.88659 26.8865Z" fill="white"/>
<path fill-rule="evenodd" clip-rule="evenodd" d="M0.015228 24.395C0.150886 24.4831 0.234088 24.5338 0.313674 24.5898C1.88911 25.697 3.6183 26.4726 5.50033 26.9163C6.26454 27.0969 7.03688 27.2347 7.8246 27.2703C8.33106 27.2934 8.83661 27.3183 9.34307 27.3219C10.5468 27.329 11.7514 27.3326 12.9552 27.321C13.6796 27.3139 14.3579 27.4686 15.0136 27.7657C17.9004 29.0712 19.9597 31.6486 20.5755 34.7267C20.6913 35.3038 20.7365 35.8864 20.7609 36.4716C20.7646 36.5525 20.7438 36.6343 20.7275 36.7722C20.6162 36.6468 20.5421 36.5676 20.4733 36.4849C19.0951 34.8307 17.355 33.7359 15.246 33.2094C14.4311 33.0058 13.6027 32.923 12.7616 32.9302C11.4051 32.9408 10.0494 32.9399 8.69281 32.9382C7.45923 32.9364 6.27087 32.6989 5.15576 32.184C2.46521 30.9425 0.797521 28.8863 0.164451 26.0261C0.0504985 25.512 -0.0100948 24.9944 0.015228 24.395Z" fill="#FCA12E"/>
<path fill-rule="evenodd" clip-rule="evenodd" d="M97.9587 18.2628C97.5644 19.2367 97.1863 20.1705 96.802 21.1203C96.7215 21.1025 96.66 21.0972 96.6048 21.0758C95.5494 20.6845 94.4578 20.5147 93.3301 20.5173C89.9332 20.5244 86.5363 20.52 83.1385 20.5191C82.9884 20.5191 82.8383 20.5147 82.6854 20.512C82.6113 20.3635 82.6384 20.2247 82.6384 20.0922C82.6366 18.559 82.6366 17.0257 82.6366 15.4925C82.6366 15.0816 82.6357 14.6698 82.6375 14.258C82.6375 14.1611 82.6456 14.0642 82.6511 13.9459C82.9323 13.8961 83.1973 13.9236 83.4587 13.9192C83.7119 13.9148 83.966 13.9183 84.2193 13.9183C84.4851 13.9183 84.7519 13.9165 85.0178 13.9183C85.2693 13.9201 85.5207 13.9085 85.7956 13.9316C85.8046 14.0642 85.8173 14.1727 85.8173 14.2812C85.8191 15.1785 85.8182 16.0759 85.8191 16.9732C85.8191 17.096 85.8273 17.2187 85.8309 17.3405C85.9602 17.4197 86.0895 17.3904 86.2116 17.3912C87.3141 17.3939 88.4174 17.393 89.5199 17.393C90.8891 17.393 92.2574 17.3841 93.6267 17.3957C95.0059 17.4072 96.3471 17.6447 97.6404 18.1258C97.7335 18.1623 97.823 18.205 97.9587 18.2628Z" fill="#FCA12E"/>
<path fill-rule="evenodd" clip-rule="evenodd" d="M82.3919 10.6681C82.3675 9.73694 83.1226 8.65193 84.4494 8.65015C85.7861 8.64837 86.5295 9.74583 86.5241 10.6974C86.5186 11.5841 85.8322 12.7101 84.4584 12.7154C83.1254 12.7207 82.3548 11.6277 82.3919 10.6681Z" fill="#FCA12E"/>
<path d="M2.86 3.86C3.79333 3.86 4.47333 4.04333 4.9 4.41C5.32667 4.77667 5.54 5.29333 5.54 5.96C5.54 6.25333 5.49 6.53667 5.39 6.81C5.29667 7.07667 5.14 7.31667 4.92 7.53C4.7 7.74333 4.40667 7.91333 4.04 8.04C3.67333 8.16 3.22333 8.22 2.69 8.22H1.87V11H0.97V3.86H2.86ZM2.78 4.63H1.87V7.45H2.59C3.04333 7.45 3.42 7.40333 3.72 7.31C4.02 7.21 4.24333 7.05333 4.39 6.84C4.53667 6.62667 4.61 6.34667 4.61 6C4.61 5.54 4.46333 5.19667 4.17 4.97C3.87667 4.74333 3.41333 4.63 2.78 4.63ZM11.5647 8.31C11.5647 8.75667 11.5047 9.15333 11.3847 9.5C11.2714 9.84 11.1047 10.13 10.8847 10.37C10.6714 10.61 10.408 10.7933 10.0947 10.92C9.78802 11.04 9.44469 11.1 9.06469 11.1C8.71135 11.1 8.38469 11.04 8.08469 10.92C7.78469 10.7933 7.52469 10.61 7.30469 10.37C7.08469 10.13 6.91135 9.84 6.78469 9.5C6.66469 9.15333 6.60469 8.75667 6.60469 8.31C6.60469 7.71667 6.70469 7.21667 6.90469 6.81C7.10469 6.39667 7.39135 6.08333 7.76469 5.87C8.13802 5.65 8.58135 5.54 9.09469 5.54C9.58135 5.54 10.008 5.65 10.3747 5.87C10.748 6.08333 11.038 6.39667 11.2447 6.81C11.458 7.21667 11.5647 7.71667 11.5647 8.31ZM7.51469 8.31C7.51469 8.73 7.56802 9.09667 7.67469 9.41C7.78802 9.71667 7.96135 9.95333 8.19469 10.12C8.42802 10.2867 8.72469 10.37 9.08469 10.37C9.44469 10.37 9.74135 10.2867 9.97469 10.12C10.208 9.95333 10.378 9.71667 10.4847 9.41C10.598 9.09667 10.6547 8.73 10.6547 8.31C10.6547 7.88333 10.598 7.52 10.4847 7.22C10.3714 6.92 10.198 6.69 9.96469 6.53C9.73802 6.36333 9.44135 6.28 9.07469 6.28C8.52802 6.28 8.13135 6.46 7.88469 6.82C7.63802 7.18 7.51469 7.67667 7.51469 8.31ZM16.2241 7.97C16.1841 7.83 16.1441 7.69333 16.1041 7.56C16.0641 7.42 16.0274 7.29 15.9941 7.17C15.9674 7.04333 15.9407 6.92667 15.9141 6.82C15.8874 6.71333 15.8674 6.62333 15.8541 6.55H15.8141C15.8007 6.62333 15.7807 6.71333 15.7541 6.82C15.7341 6.92667 15.7074 7.04333 15.6741 7.17C15.6474 7.29667 15.6141 7.43 15.5741 7.57C15.5407 7.70333 15.5007 7.84 15.4541 7.98L14.4941 10.99H13.4941L12.0241 5.63H12.9341L13.6741 8.49C13.7274 8.68333 13.7774 8.88 13.8241 9.08C13.8707 9.27333 13.9107 9.46 13.9441 9.64C13.9841 9.81333 14.0107 9.96333 14.0241 10.09H14.0641C14.0841 10.01 14.1074 9.91 14.1341 9.79C14.1607 9.67 14.1874 9.54333 14.2141 9.41C14.2474 9.27667 14.2807 9.14333 14.3141 9.01C14.3541 8.87667 14.3907 8.75667 14.4241 8.65L15.3741 5.63H16.3341L17.2541 8.65C17.3007 8.80333 17.3474 8.96667 17.3941 9.14C17.4474 9.31333 17.4941 9.48333 17.5341 9.65C17.5741 9.81 17.6007 9.95333 17.6141 10.08H17.6541C17.6674 9.96667 17.6907 9.82667 17.7241 9.66C17.7641 9.48667 17.8074 9.3 17.8541 9.1C17.9074 8.89333 17.9607 8.69 18.0141 8.49L18.7641 5.63H19.6641L18.1741 10.99H17.1441L16.2241 7.97ZM22.6954 5.54C23.1554 5.54 23.5487 5.64 23.8754 5.84C24.2087 6.04 24.4621 6.32333 24.6354 6.69C24.8154 7.05 24.9054 7.47333 24.9054 7.96V8.49H21.2354C21.2487 9.09667 21.4021 9.56 21.6954 9.88C21.9954 10.1933 22.4121 10.35 22.9454 10.35C23.2854 10.35 23.5854 10.32 23.8454 10.26C24.1121 10.1933 24.3854 10.1 24.6654 9.98V10.75C24.3921 10.87 24.1221 10.9567 23.8554 11.01C23.5887 11.07 23.2721 11.1 22.9054 11.1C22.3987 11.1 21.9487 10.9967 21.5554 10.79C21.1687 10.5833 20.8654 10.2767 20.6454 9.87C20.4321 9.45667 20.3254 8.95333 20.3254 8.36C20.3254 7.77333 20.4221 7.27 20.6154 6.85C20.8154 6.43 21.0921 6.10667 21.4454 5.88C21.8054 5.65333 22.2221 5.54 22.6954 5.54ZM22.6854 6.26C22.2654 6.26 21.9321 6.39667 21.6854 6.67C21.4454 6.93667 21.3021 7.31 21.2554 7.79H23.9854C23.9854 7.48333 23.9387 7.21667 23.8454 6.99C23.7521 6.76333 23.6087 6.58667 23.4154 6.46C23.2287 6.32667 22.9854 6.26 22.6854 6.26ZM28.7699 5.54C28.8699 5.54 28.9766 5.54667 29.0899 5.56C29.2099 5.56667 29.3133 5.58 29.3999 5.6L29.2899 6.41C29.2033 6.39 29.1066 6.37333 28.9999 6.36C28.8999 6.34667 28.8033 6.34 28.7099 6.34C28.5033 6.34 28.3066 6.38333 28.1199 6.47C27.9333 6.55667 27.7666 6.68 27.6199 6.84C27.4733 6.99333 27.3566 7.18 27.2699 7.4C27.1899 7.62 27.1499 7.86667 27.1499 8.14V11H26.2699V5.64H26.9899L27.0899 6.62H27.1299C27.2433 6.42 27.3799 6.24 27.5399 6.08C27.6999 5.91333 27.8833 5.78333 28.0899 5.69C28.2966 5.59 28.5233 5.54 28.7699 5.54ZM32.2755 5.54C32.7355 5.54 33.1288 5.64 33.4555 5.84C33.7888 6.04 34.0421 6.32333 34.2155 6.69C34.3955 7.05 34.4855 7.47333 34.4855 7.96V8.49H30.8155C30.8288 9.09667 30.9821 9.56 31.2755 9.88C31.5755 10.1933 31.9921 10.35 32.5255 10.35C32.8655 10.35 33.1655 10.32 33.4255 10.26C33.6921 10.1933 33.9655 10.1 34.2455 9.98V10.75C33.9721 10.87 33.7021 10.9567 33.4355 11.01C33.1688 11.07 32.8521 11.1 32.4855 11.1C31.9788 11.1 31.5288 10.9967 31.1355 10.79C30.7488 10.5833 30.4455 10.2767 30.2255 9.87C30.0121 9.45667 29.9055 8.95333 29.9055 8.36C29.9055 7.77333 30.0021 7.27 30.1955 6.85C30.3955 6.43 30.6721 6.10667 31.0255 5.88C31.3855 5.65333 31.8021 5.54 32.2755 5.54ZM32.2655 6.26C31.8455 6.26 31.5121 6.39667 31.2655 6.67C31.0255 6.93667 30.8821 7.31 30.8355 7.79H33.5655C33.5655 7.48333 33.5188 7.21667 33.4255 6.99C33.3321 6.76333 33.1888 6.58667 32.9955 6.46C32.8088 6.32667 32.5655 6.26 32.2655 6.26ZM37.75 11.1C37.0833 11.1 36.55 10.87 36.15 10.41C35.75 9.94333 35.55 9.25 35.55 8.33C35.55 7.41 35.75 6.71667 36.15 6.25C36.5567 5.77667 37.0933 5.54 37.76 5.54C38.04 5.54 38.2833 5.57667 38.49 5.65C38.6967 5.71667 38.8767 5.81 39.03 5.93C39.1833 6.05 39.3133 6.18333 39.42 6.33H39.48C39.4733 6.24333 39.46 6.11667 39.44 5.95C39.4267 5.77667 39.42 5.64 39.42 5.54V3.4H40.3V11H39.59L39.46 10.28H39.42C39.3133 10.4333 39.1833 10.5733 39.03 10.7C38.8767 10.82 38.6933 10.9167 38.48 10.99C38.2733 11.0633 38.03 11.1 37.75 11.1ZM37.89 10.37C38.4567 10.37 38.8533 10.2167 39.08 9.91C39.3133 9.59667 39.43 9.12667 39.43 8.5V8.34C39.43 7.67333 39.32 7.16333 39.1 6.81C38.88 6.45 38.4733 6.27 37.88 6.27C37.4067 6.27 37.05 6.46 36.81 6.84C36.5767 7.21333 36.46 7.71667 36.46 8.35C36.46 8.99 36.5767 9.48667 36.81 9.84C37.05 10.1933 37.41 10.37 37.89 10.37ZM46.76 3.86C47.3533 3.86 47.85 3.91667 48.25 4.03C48.6567 4.14333 48.96 4.33 49.16 4.59C49.3667 4.85 49.47 5.19667 49.47 5.63C49.47 5.91 49.4167 6.16 49.31 6.38C49.21 6.59333 49.0567 6.77333 48.85 6.92C48.65 7.06 48.4033 7.15667 48.11 7.21V7.26C48.41 7.30667 48.68 7.39333 48.92 7.52C49.1667 7.64667 49.36 7.82667 49.5 8.06C49.64 8.29333 49.71 8.59667 49.71 8.97C49.71 9.40333 49.61 9.77333 49.41 10.08C49.21 10.38 48.9233 10.61 48.55 10.77C48.1833 10.9233 47.7433 11 47.23 11H44.72V3.86H46.76ZM46.94 6.9C47.5533 6.9 47.9733 6.80333 48.2 6.61C48.4267 6.41 48.54 6.11667 48.54 5.73C48.54 5.33667 48.4 5.05667 48.12 4.89C47.8467 4.71667 47.4067 4.63 46.8 4.63H45.62V6.9H46.94ZM45.62 7.65V10.24H47.06C47.6933 10.24 48.1333 10.1167 48.38 9.87C48.6267 9.62333 48.75 9.3 48.75 8.9C48.75 8.64667 48.6933 8.42667 48.58 8.24C48.4733 8.05333 48.29 7.91 48.03 7.81C47.7767 7.70333 47.43 7.65 46.99 7.65H45.62ZM50.2639 5.64H51.2039L52.3639 8.69C52.4306 8.87 52.4906 9.04333 52.5439 9.21C52.6039 9.37667 52.6572 9.54 52.7039 9.7C52.7506 9.85333 52.7872 10.0033 52.8139 10.15H52.8539C52.8939 9.98333 52.9572 9.76667 53.0439 9.5C53.1306 9.22667 53.2206 8.95333 53.3139 8.68L54.4039 5.64H55.3539L53.0439 11.74C52.9172 12.0733 52.7672 12.3633 52.5939 12.61C52.4272 12.8633 52.2206 13.0567 51.9739 13.19C51.7339 13.33 51.4406 13.4 51.0939 13.4C50.9339 13.4 50.7939 13.39 50.6739 13.37C50.5539 13.3567 50.4506 13.34 50.3639 13.32V12.62C50.4372 12.6333 50.5239 12.6467 50.6239 12.66C50.7306 12.6733 50.8406 12.68 50.9539 12.68C51.1606 12.68 51.3372 12.64 51.4839 12.56C51.6372 12.4867 51.7672 12.3767 51.8739 12.23C51.9806 12.09 52.0706 11.9233 52.1439 11.73L52.4239 11.02L50.2639 5.64Z" fill="white"/>
</svg>
